<?xml version="1.0" encoding="UTF-8" standalone="no"?>
<!-- Created with Inkscape (http://www.inkscape.org/) -->

<svg
   version="1.1"
   id="svg18"
   width="1066.6667"
   height="1066.6667"
   viewBox="0 0 1066.6667 1066.6667"
   sodipodi:docname="pattern.svg"
   inkscape:version="1.2.2 (732a01da63, 2022-12-09, custom)"
   xmlns:inkscape="http://www.inkscape.org/namespaces/inkscape"
   xmlns:sodipodi="http://sodipodi.sourceforge.net/DTD/sodipodi-0.dtd"
   xmlns="http://www.w3.org/2000/svg"
   xmlns:svg="http://www.w3.org/2000/svg">
  <defs
     id="defs22">
    <pattern
       patternTransform="translate(1013.95,0.992187)"
       patternUnits="userSpaceOnUse"
       x="0"
       y="0"
       width="410"
       height="300"
       id="pattern808">
      <g
         transform="translate(57.084,23.6758)"
         id="g30">
        <path
           d="M 0,0 C -1.733,7.566 -4.359,15.15 -9.676,20.971 -10.98,22.4 -12.977,20.158 -11.684,18.742 -6.75,13.34 -4.45,6.051 -2.848,-0.947 -2.416,-2.828 0.429,-1.871 0,0"
           style="fill:#b64926;fill-opacity:1;fill-rule:nonzero;stroke:none"
           id="path28" />
      </g>
      <g
         transform="translate(46.8496,45.2969)"
         id="g34">
        <path
           d="m 0,0 c -6.78,6.061 -17.91,2.021 -25.04,-1.189 -7.22,-3.252 -17.069,-8.743 -19.811,-16.766 -0.626,-1.834 2.313,-2.455 2.93,-0.649 2.357,6.899 11.733,11.682 17.827,14.567 5.907,2.795 16.354,6.932 22.086,1.808 C -0.565,-3.518 1.443,-1.289 0,0"
           style="fill:#b64926;fill-opacity:1;fill-rule:nonzero;stroke:none"
           id="path32" />
      </g>
      <g
         transform="translate(18.5235,2.8731)"
         id="g38">
        <path
           d="m 0,0 c -5.859,4.687 -15.183,15.375 -13.617,23.518 0.365,1.9 -2.566,2.546 -2.93,0.646 C -18.361,14.729 -8.854,3.248 -2.009,-2.227 -0.503,-3.432 1.514,-1.211 0,0"
           style="fill:#b64926;fill-opacity:1;fill-rule:nonzero;stroke:none"
           id="path36" />
      </g>
      <g
         transform="translate(43.1983,17.125)"
         id="g42">
        <path
           d="m 0,0 c -1.489,5.1 -2.323,11.51 -5.973,15.639 -4.062,4.597 -9.922,3.902 -15.188,1.871 -5.093,-1.963 -10.651,-6.914 -10.877,-12.752 -0.273,-7.055 6.04,-13.102 9.819,-18.52 1.105,-1.58 3.619,0.057 2.508,1.649 -2.745,3.933 -5.624,7.777 -8.194,11.832 -4.023,6.347 2.375,12.467 7.69,14.943 4.862,2.264 10.096,2.235 13.081,-2.588 C -4.783,8.279 -4.082,3.281 -2.847,-0.947 -2.305,-2.803 0.543,-1.855 0,0"
           style="fill:#b64926;fill-opacity:1;fill-rule:nonzero;stroke:none"
           id="path40" />
      </g>
      <g
         transform="translate(54.9776,24.2949)"
         id="g46">
        <path
           d="m 0,0 c -6.64,-3.262 -12.997,-7.172 -19.415,-10.84 -5.944,-3.396 -12.075,-7.869 -18.517,-10.271 -1.805,-0.674 -0.872,-3.526 0.947,-2.848 6.017,2.244 11.709,6.322 17.257,9.49 7.07,4.039 14.062,8.367 21.374,11.961 C 3.378,-1.658 1.717,0.844 0,0"
           style="fill:#b64926;fill-opacity:1;fill-rule:nonzero;stroke:none"
           id="path44" />
      </g>
      <g
         transform="translate(76.8067,-94.3691)"
         id="g50">
        <path
           d="m 0,0 c -19.525,31.807 -38.013,64.264 -57.029,96.375 -0.987,1.664 -3.494,0.016 -2.508,-1.646 C -40.521,62.617 -22.034,30.16 -2.508,-1.646 -1.496,-3.295 1.013,-1.648 0,0"
           style="fill:#b64926;fill-opacity:1;fill-rule:nonzero;stroke:none"
           id="path48" />
      </g>
      <g
         transform="translate(72.0518,-9.914)"
         id="g54">
        <path
           d="m 0,0 c -3.624,1.166 -7.105,2.646 -10.847,3.41 0.336,-0.717 0.673,-1.435 1.009,-2.154 1.813,2.951 3.725,5.832 5.391,8.871 0.404,0.736 0.052,1.627 -0.644,2.021 -3.497,1.979 -7.499,1.485 -11.195,2.829 0.215,-0.674 0.43,-1.348 0.643,-2.022 1.688,3.617 4.475,6.457 5.754,10.283 0.344,1.028 -0.676,1.752 -1.542,1.823 -2.951,0.236 -5.79,-0.608 -8.744,-0.252 0.337,-0.717 0.673,-1.436 1.01,-2.155 1.513,3.162 2.888,6.381 4.246,9.612 0.747,1.775 -1.915,3.16 -2.664,1.377 -1.359,-3.231 -2.734,-6.45 -4.247,-9.61 -0.386,-0.804 0.011,-2.033 1.009,-2.154 3.228,-0.389 6.325,0.443 9.546,0.185 -0.515,0.606 -1.029,1.213 -1.543,1.821 -1.183,-3.533 -3.927,-6.201 -5.489,-9.553 -0.31,-0.666 -0.147,-1.734 0.644,-2.021 3.632,-1.321 7.808,-0.911 11.194,-2.829 -0.215,0.674 -0.429,1.348 -0.643,2.022 -1.667,-3.039 -3.578,-5.918 -5.391,-8.869 -0.507,-0.828 0.109,-1.973 1.01,-2.155 3.736,-0.761 7.228,-2.244 10.847,-3.412 C 1.197,-3.525 1.822,-0.588 0,0"
           style="fill:#b64926;fill-opacity:1;fill-rule:nonzero;stroke:none"
           id="path52" />
      </g>
      <g
         transform="translate(339.7715,17.4844)"
         id="g58">
        <path
           d="m 0,0 c -2.754,-8.173 -4.831,-16.369 -5.498,-24.989 -0.683,-8.814 0.292,-17.83 1.133,-26.595 0.184,-1.927 3.144,-1.43 2.96,0.489 -0.822,8.567 -1.578,17.18 -1.11,25.791 0.452,8.315 2.663,16.357 5.308,24.208 C 3.41,0.732 0.617,1.832 0,0"
           style="fill:#b64926;fill-opacity:1;fill-rule:nonzero;stroke:none"
           id="path56" />
      </g>
      <g
         transform="translate(340.2242,18.1026)"
         id="g62">
        <path
           d="m 0,0 c -11.96,-10.579 -16.721,-27.306 -16.434,-42.862 0.161,-8.788 3.68,-17.036 6.779,-25.105 4.216,-10.973 5.926,-21.183 3.027,-32.717 -0.464,-1.852 2.324,-2.966 2.794,-1.095 2.024,8.052 2.452,15.643 0.574,23.767 -2.035,8.807 -6.327,16.899 -8.712,25.6 -4.583,16.73 0.724,38.46 13.86,50.08 C 3.333,-1.055 1.452,1.284 0,0"
           style="fill:#b64926;fill-opacity:1;fill-rule:nonzero;stroke:none"
           id="path60" />
      </g>
      <g
         transform="translate(338.7705,-35.4443)"
         id="g66">
        <path
           d="M 0,0 C 14.734,10.463 21.624,29.597 23.021,47.015 22.067,46.861 21.114,46.708 20.161,46.556 26.469,28.264 18.425,0.451 -0.15,-7.543 -1.927,-8.307 -0.695,-11.042 1.084,-10.277 21.283,-1.586 29.726,27.979 22.896,47.79 22.399,49.229 20.15,48.754 20.037,47.329 18.7,30.656 12.229,12.356 -1.888,2.332 -3.468,1.21 -1.571,-1.115 0,0"
           style="fill:#b64926;fill-opacity:1;fill-rule:nonzero;stroke:none"
           id="path64" />
      </g>
      <g
         transform="translate(431.1983,111.2071)"
         id="g70">
        <path
           d="m 0,0 c -9.793,8.852 -19.112,19.127 -31.744,23.896 -7.523,2.84 -21.649,3.135 -24.707,-6.394 -2.444,-7.611 4.047,-16.33 8.665,-21.678 8.429,-9.756 20.505,-14.144 32.723,-17.236 1.879,-0.475 2.311,2.498 0.455,2.967 -10.779,2.724 -21.648,6.502 -29.507,14.677 -4.711,4.901 -10.709,12.495 -9.635,19.762 0.618,4.188 5.304,5.674 8.839,6.328 5.903,1.09 11.636,-0.701 16.862,-3.336 10.06,-5.068 17.942,-13.884 26.19,-21.34 C -0.422,-3.654 1.429,-1.291 0,0"
           style="fill:#fff0a5;fill-opacity:1;fill-rule:nonzero;stroke:none"
           id="path68" />
      </g>
      <g
         transform="translate(417.3701,121.9004)"
         id="g74">
        <path
           d="m 0,0 c -6.08,-4.234 -11.116,-9.313 -14.435,-16 -0.862,-1.738 1.894,-2.928 2.75,-1.201 3.091,6.23 7.838,10.867 13.492,14.806 C 3.395,-1.289 1.587,1.105 0,0"
           style="fill:#fff0a5;fill-opacity:1;fill-rule:nonzero;stroke:none"
           id="path72" />
      </g>
      <g
         transform="translate(413.1914,126.2598)"
         id="g78">
        <path
           d="m 0,0 c -6.165,-3.113 -10.488,-7.707 -14.186,-13.467 -1.037,-1.613 1.308,-3.488 2.354,-1.859 3.394,5.285 7.28,9.677 12.962,12.547 C 2.842,-1.914 1.731,0.875 0,0"
           style="fill:#fff0a5;fill-opacity:1;fill-rule:nonzero;stroke:none"
           id="path76" />
      </g>
      <g
         transform="translate(405.9473,130.7793)"
         id="g82">
        <path
           d="m 0,0 c -6.851,-2.768 -11.992,-8.402 -14.19,-15.453 -0.569,-1.83 2.175,-3.045 2.75,-1.199 1.979,6.343 6.375,11.369 12.571,13.873 C 2.922,-2.057 1.797,0.725 0,0"
           style="fill:#fff0a5;fill-opacity:1;fill-rule:nonzero;stroke:none"
           id="path80" />
      </g>
      <g
         transform="translate(397.7881,134.5196)"
         id="g86">
        <path
           d="m 0,0 c -4.873,-1.922 -8.192,-6.275 -10.723,-10.682 -0.963,-1.679 1.798,-2.859 2.75,-1.201 2.134,3.717 4.997,7.485 9.103,9.102 C 2.929,-2.072 1.802,0.709 0,0"
           style="fill:#fff0a5;fill-opacity:1;fill-rule:nonzero;stroke:none"
           id="path84" />
      </g>
      <g
         transform="translate(428.7989,261.7442)"
         id="g90">
        <path
           d="m 0,0 c 1.296,11.27 -12.144,18.977 -21.126,22.139 -7.199,2.533 -23.605,4.224 -24.993,-6.856 -1.087,-8.685 9.061,-14.853 15.612,-18.076 8.641,-4.25 25.261,-8.69 30.42,2.42 C 0.73,1.385 -2.088,2.418 -2.897,0.674 -7.161,-8.504 -22.669,-3.09 -29.46,0.017 -34.687,2.412 -43.284,7.592 -43.226,14.252 -43.096,28.973 -1.048,17.16 -2.984,0.301 -3.206,-1.627 -0.22,-1.918 0,0"
           style="fill:#ffb03b;fill-opacity:1;fill-rule:nonzero;stroke:none"
           id="path88" />
      </g>
      <g
         transform="translate(382.4444,278.0996)"
         id="g94">
        <path
           d="m 0,0 c -11.385,-27.537 40.049,-44.801 46.354,-16.355 0.419,1.89 -2.571,2.164 -2.984,0.3 C 38.099,-39.834 -7.039,-24.873 2.81,-1.047 3.552,0.744 0.737,1.785 0,0"
           style="fill:#ffb03b;fill-opacity:1;fill-rule:nonzero;stroke:none"
           id="path92" />
      </g>
      <g
         transform="translate(389.3936,254.8867)"
         id="g98">
        <path
           d="m 0,0 c -4.405,-9.285 -9.017,-18.475 -12.094,-28.31 -1.386,-4.43 -2.27,-9.008 -2.528,-13.643 -0.13,-2.338 -0.581,-6.953 1.695,-8.553 5.019,-3.521 12.552,9.26 14.312,12.047 6.124,9.705 11.006,20.377 15.372,30.961 0.74,1.793 -2.075,2.834 -2.811,1.047 C 10.89,-13.857 7.39,-20.9 3.741,-28.025 c -2.042,-3.987 -4.205,-7.879 -6.693,-11.606 -1.001,-1.498 -8.093,-10.74 -8.622,-6.379 -1.861,15.344 8.071,31.655 14.385,44.963 C 3.642,0.703 0.823,1.736 0,0"
           style="fill:#ffb03b;fill-opacity:1;fill-rule:nonzero;stroke:none"
           id="path96" />
      </g>
      <g
         transform="translate(403.0498,248.1953)"
         id="g102">
        <path
           d="m 0,0 c -3.785,-4.316 -11.814,-3.533 -16.959,-3.357 -1.928,0.066 -2.233,-2.92 -0.299,-2.985 6.531,-0.222 14.99,-0.769 19.712,4.616 C 3.729,-0.273 1.265,1.441 0,0"
           style="fill:#ffb03b;fill-opacity:1;fill-rule:nonzero;stroke:none"
           id="path100" />
      </g>
      <g
         transform="translate(399.2891,239.0039)"
         id="g106">
        <path
           d="m 0,0 c -5.186,-2.846 -11.357,-2.291 -17.044,-1.789 -1.929,0.172 -2.226,-2.815 -0.299,-2.984 6.188,-0.547 12.951,-1.049 18.59,2.044 C 2.934,-1.805 1.697,0.93 0,0"
           style="fill:#ffb03b;fill-opacity:1;fill-rule:nonzero;stroke:none"
           id="path104" />
      </g>
      <g
         transform="translate(395.0782,230.4219)"
         id="g110">
        <path
           d="m 0,0 c -4.541,-3.188 -10.285,-2.58 -15.543,-2.508 -1.923,0.026 -2.232,-2.961 -0.299,-2.986 6.192,-0.084 12.459,-0.533 17.77,3.193 C 3.511,-1.19 1.573,1.103 0,0"
           style="fill:#ffb03b;fill-opacity:1;fill-rule:nonzero;stroke:none"
           id="path108" />
      </g>
      <g
         transform="translate(390.6123,221.1074)"
         id="g114">
        <path
           d="m 0,0 c -4.175,-2.463 -8.73,-3.033 -13.483,-2.359 -1.921,0.273 -2.208,-2.715 -0.3,-2.985 5.218,-0.74 10.446,-0.09 15.03,2.616 C 2.897,-1.756 1.666,0.983 0,0"
           style="fill:#ffb03b;fill-opacity:1;fill-rule:nonzero;stroke:none"
           id="path112" />
      </g>
      <g
         transform="translate(416.752,271.5684)"
         id="g118">
        <path
           d="m 0,0 c -7.227,0.344 -14.456,-0.221 -21.683,0.123 -1.927,0.092 -2.231,-2.893 -0.299,-2.984 7.227,-0.346 14.456,0.218 21.683,-0.125 C 1.629,-3.076 1.933,-0.092 0,0"
           style="fill:#ffb03b;fill-opacity:1;fill-rule:nonzero;stroke:none"
           id="path116" />
      </g>
      <g
         transform="translate(414.6319,262.7696)"
         id="g122">
        <path
           d="M 0,0 C -5.002,5.041 -9.437,10.588 -14.163,15.881 -15.447,17.318 -17.754,15.4 -16.462,13.953 -11.735,8.66 -7.302,3.113 -2.298,-1.93 -0.948,-3.291 1.366,-1.377 0,0"
           style="fill:#ffb03b;fill-opacity:1;fill-rule:nonzero;stroke:none"
           id="path120" />
      </g>
      <g
         transform="translate(418.958,213.9571)"
         id="g126">
        <path
           d="m 0,0 c -12.693,-5.812 -18.009,-18.738 -15.02,-32.104 1.495,-6.691 5.586,-12.699 11.001,-16.82 6.422,-4.887 13.981,-5.258 21.734,-5.273 1.935,-0.004 1.751,2.992 -0.179,2.994 -7.078,0.015 -13.536,0.359 -19.536,4.5 -4.616,3.183 -7.721,8.092 -9.537,13.308 -4.169,11.979 0.853,25.223 12.47,30.543 C 2.672,-2.055 1.759,0.807 0,0"
           style="fill:#468966;fill-opacity:1;fill-rule:nonzero;stroke:none"
           id="path124" />
      </g>
      <g
         transform="translate(306.0625,88.4317)"
         id="g130">
        <path
           d="m 0,0 c -10.999,-20.098 12.252,-42.713 31.77,-30.031 1.617,1.051 0.076,3.625 -1.55,2.568 C 13.255,-38.484 -6.987,-19.016 2.615,-1.469 3.545,0.229 0.929,1.699 0,0"
           style="fill:#ffb03b;fill-opacity:1;fill-rule:nonzero;stroke:none"
           id="path128" />
      </g>
      <g
         transform="translate(306.086,86.9219)"
         id="g134">
        <path
           d="m 0,0 c 5.346,-10.926 19.4,-16.107 30.38,-10.729 1.736,0.852 0.177,3.417 -1.55,2.571 C 19.226,-12.863 7.145,-7.801 2.568,1.551 1.72,3.287 -0.846,1.727 0,0"
           style="fill:#ffb03b;fill-opacity:1;fill-rule:nonzero;stroke:none"
           id="path132" />
      </g>
      <g
         transform="translate(314.1221,96.0391)"
         id="g138">
        <path
           d="M 0,0 C 5.806,5.906 13.912,11.092 22.52,8.902 31.572,6.6 35.438,-4.729 34.585,-12.93 c -0.2,-1.925 2.804,-1.884 3.001,0.014 0.971,9.328 -3.571,20.932 -13.12,24.303 C 14.57,14.881 4.638,8.998 -2.158,2.086 -3.515,0.705 -1.359,-1.381 0,0"
           style="fill:#ffb03b;fill-opacity:1;fill-rule:nonzero;stroke:none"
           id="path136" />
      </g>
      <g
         transform="translate(313.4483,95.6387)"
         id="g142">
        <path
           d="m 0,0 c 9.951,2.787 22.077,-6.416 21.916,-16.799 -0.029,-1.939 2.971,-1.914 3.001,0.016 C 25.108,-4.449 10.986,6.191 -0.812,2.887 -2.675,2.365 -1.862,-0.523 0,0"
           style="fill:#ffb03b;fill-opacity:1;fill-rule:nonzero;stroke:none"
           id="path140" />
      </g>
      <g
         transform="translate(336.0567,78.9278)"
         id="g146">
        <path
           d="m 0,0 c -5.792,-5.803 -5.23,-13.77 0.374,-19.492 6.107,-6.237 15.169,-5.426 21.012,0.517 C 34.289,-5.85 12.133,14.119 0,0 -1.255,-1.461 0.893,-3.557 2.158,-2.086 11.33,8.59 28.266,-4.942 19.904,-16.104 10.613,-28.508 -8.843,-13.104 2.158,-2.086 3.525,-0.717 1.368,1.369 0,0"
           style="fill:#ffb03b;fill-opacity:1;fill-rule:nonzero;stroke:none"
           id="path144" />
      </g>
      <g
         transform="translate(341.4668,74.0957)"
         id="g150">
        <path
           d="m 0,0 c -2.796,-2.801 -2.518,-6.742 0.181,-9.5 2.921,-2.98 7.344,-2.607 10.145,0.242 C 16.595,-2.883 5.874,6.836 0,0 -1.254,-1.461 0.894,-3.557 2.158,-2.086 3.648,-0.35 5.515,-0.189 7.395,-1.43 9.196,-2.615 9.757,-5.104 8.455,-6.84 5.162,-11.236 -1.698,-5.947 2.158,-2.086 3.525,-0.715 1.369,1.371 0,0"
           style="fill:#ffb03b;fill-opacity:1;fill-rule:nonzero;stroke:none"
           id="path148" />
      </g>
      <g
         transform="translate(339.8838,56.6016)"
         id="g154">
        <path
           d="m 0,0 c 6.493,-10.98 13.953,-21.34 22.653,-30.684 4.4,-4.724 9.228,-9.146 14.437,-12.962 4.096,-3 9.232,-7.461 14.567,-7.471 2.605,-0.006 5.572,2.33 5.741,5.025 0.335,5.324 -6.212,9.819 -9.527,13.186 -5.679,5.767 -11.598,11.299 -17.485,16.853 -5.689,5.365 -11.212,11.088 -13.067,18.912 -0.446,1.885 -3.334,1.065 -2.888,-0.812 2.42,-10.207 10.586,-17.152 17.91,-24.072 4.54,-4.287 9.04,-8.616 13.446,-13.039 2.193,-2.204 4.335,-4.457 6.454,-6.733 2.497,-1.676 2.514,-3.732 0.049,-6.172 -2.119,-0.871 -4.363,0.879 -6.056,1.842 C 27.426,-35.436 13.389,-16.746 2.569,1.551 1.585,3.215 -0.985,1.668 0,0"
           style="fill:#ffb03b;fill-opacity:1;fill-rule:nonzero;stroke:none"
           id="path152" />
      </g>
      <g
         transform="translate(354.0977,78.043)"
         id="g158">
        <path
           d="m 0,0 c 21.051,-1.02 42.814,-4.889 61.234,-15.619 0.868,-0.518 1.727,-1.053 2.574,-1.608 0.849,-0.746 1.7,-1.494 2.549,-2.24 -0.673,-4.103 -2.348,-5.504 -5.022,-4.203 -3.007,0.787 -5.988,1.672 -8.965,2.566 -5.979,1.797 -11.897,3.799 -17.81,5.805 -9.578,3.252 -19.458,7.19 -29.649,4.557 -1.875,-0.485 -1.059,-3.371 0.812,-2.889 7.332,1.895 14.279,-0.074 21.286,-2.287 7.636,-2.412 15.165,-5.152 22.811,-7.539 4.797,-1.498 11.907,-5.131 16.922,-3.303 2.918,1.063 3.963,5.135 2.704,7.758 -2.157,4.498 -7.929,6.795 -12.139,8.937 -5.751,2.926 -11.888,5.102 -18.063,6.936 C 26.536,0.648 13.197,2.359 -0.016,3 -1.953,3.094 -1.922,0.094 0,0"
           style="fill:#ffb03b;fill-opacity:1;fill-rule:nonzero;stroke:none"
           id="path156" />
      </g>
      <g
         transform="translate(355.2862,36.4707)"
         id="g162">
        <path
           d="M 0,0 C 4.116,-0.264 7.191,3.172 9.521,6.123 10.708,7.625 8.563,9.729 7.363,8.207 5.564,5.93 3.209,2.795 -0.016,3 -1.951,3.125 -1.917,0.123 0,0"
           style="fill:#ffb03b;fill-opacity:1;fill-rule:nonzero;stroke:none"
           id="path160" />
      </g>
      <g
         transform="translate(381.7256,64.2129)"
         id="g166">
        <path
           d="M 0,0 C 1.909,3.273 2.802,7.111 2.078,10.861 1.711,12.762 -1.174,11.934 -0.81,10.049 -0.241,7.098 -1.131,4.016 -2.616,1.467 -3.592,-0.205 -0.974,-1.672 0,0"
           style="fill:#ffb03b;fill-opacity:1;fill-rule:nonzero;stroke:none"
           id="path164" />
      </g>
      <g
         transform="translate(361.8106,28.9004)"
         id="g170">
        <path
           d="M 0,0 C 4.141,1.055 8.002,3.563 10.339,7.172 11.394,8.799 8.77,10.256 7.723,8.639 5.818,5.699 2.534,3.74 -0.811,2.889 -2.688,2.41 -1.871,-0.477 0,0"
           style="fill:#ffb03b;fill-opacity:1;fill-rule:nonzero;stroke:none"
           id="path168" />
      </g>
      <g
         transform="translate(367.5303,22.7168)"
         id="g174">
        <path
           d="M 0,0 C 4.637,0.908 7.888,3.738 10.867,7.25 12.112,8.717 9.964,10.814 8.709,9.334 6.051,6.201 3.34,3.701 -0.811,2.889 -2.712,2.518 -1.885,-0.369 0,0"
           style="fill:#ffb03b;fill-opacity:1;fill-rule:nonzero;stroke:none"
           id="path172" />
      </g>
      <g
         transform="translate(373.378,16.4531)"
         id="g178">
        <path
           d="M 0,0 C 5.184,0.006 8.487,3.621 12.088,6.844 13.53,8.133 11.365,10.213 9.93,8.928 6.99,6.297 4.246,3.006 -0.016,3 -1.954,2.998 -1.932,-0.002 0,0"
           style="fill:#ffb03b;fill-opacity:1;fill-rule:nonzero;stroke:none"
           id="path176" />
      </g>
      <g
         transform="translate(382.5391,9.9707)"
         id="g182">
        <path
           d="M 0,0 C 3.828,1.576 7.176,2.721 9.307,6.533 10.251,8.223 7.635,9.691 6.69,8.002 4.985,4.951 2.24,4.145 -0.811,2.887 -2.578,2.16 -1.786,-0.736 0,0"
           style="fill:#ffb03b;fill-opacity:1;fill-rule:nonzero;stroke:none"
           id="path180" />
      </g>
      <g
         transform="translate(387.5332,62.1387)"
         id="g186">
        <path
           d="m 0,0 c 2.946,2.883 2.836,6.906 3.438,10.701 0.3,1.897 -2.601,2.664 -2.904,0.756 C 0.033,8.297 0.298,4.488 -2.158,2.084 -3.54,0.73 -1.382,-1.354 0,0"
           style="fill:#ffb03b;fill-opacity:1;fill-rule:nonzero;stroke:none"
           id="path184" />
      </g>
      <g
         transform="translate(395.7578,58.6348)"
         id="g190">
        <path
           d="M 0,0 C 2.319,3.93 3.947,7.978 4.136,12.582 4.216,14.521 1.214,14.492 1.135,12.568 0.967,8.484 -0.566,4.943 -2.615,1.467 -3.6,-0.201 -0.982,-1.666 0,0"
           style="fill:#ffb03b;fill-opacity:1;fill-rule:nonzero;stroke:none"
           id="path188" />
      </g>
      <g
         transform="translate(403.627,56.6211)"
         id="g194">
        <path
           d="m 0,0 c 2.907,3.287 3.965,7.16 3.717,11.496 -0.11,1.928 -3.11,1.918 -3,-0.014 C 0.919,7.934 0.241,4.797 -2.158,2.084 -3.435,0.641 -1.285,-1.455 0,0"
           style="fill:#ffb03b;fill-opacity:1;fill-rule:nonzero;stroke:none"
           id="path192" />
      </g>
      <g
         transform="translate(412.1455,53.3184)"
         id="g198">
        <path
           d="M 0,0 C 3.086,1.928 5.118,6.424 4.679,10.02 4.445,11.92 1.444,11.92 1.678,10.006 1.993,7.432 0.713,3.982 -1.55,2.568 -3.186,1.545 -1.644,-1.029 0,0"
           style="fill:#ffb03b;fill-opacity:1;fill-rule:nonzero;stroke:none"
           id="path196" />
      </g>
      <g
         transform="translate(21.1983,111.2071)"
         id="g202">
        <path
           d="m 0,0 c -9.793,8.852 -19.112,19.127 -31.744,23.896 -7.523,2.84 -21.649,3.135 -24.707,-6.394 -2.445,-7.611 4.047,-16.33 8.665,-21.678 8.429,-9.756 20.505,-14.144 32.723,-17.236 1.879,-0.475 2.311,2.498 0.455,2.967 -10.779,2.724 -21.648,6.502 -29.507,14.677 -4.711,4.901 -10.709,12.495 -9.635,19.762 0.618,4.188 5.304,5.674 8.839,6.328 5.903,1.09 11.636,-0.701 16.862,-3.336 10.06,-5.068 17.942,-13.884 26.19,-21.34 C -0.422,-3.654 1.429,-1.291 0,0"
           style="fill:#fff0a5;fill-opacity:1;fill-rule:nonzero;stroke:none"
           id="path200" />
      </g>
      <g
         transform="translate(19.7032,111.4199)"
         id="g206">
        <path
           d="m 0,0 c -7.545,-3.375 -15.433,-13.576 -12.713,-22.223 2.164,-6.875 12.438,-10.105 15.274,-2.181 0.65,1.814 -2.097,3.021 -2.75,1.201 -2.579,-7.207 -10.434,0.125 -10.041,5.16 0.491,6.266 5.779,12.768 11.361,15.264 C 2.89,-1.992 1.771,0.793 0,0"
           style="fill:#fff0a5;fill-opacity:1;fill-rule:nonzero;stroke:none"
           id="path204" />
      </g>
      <g
         transform="translate(20.834,108.6406)"
         id="g210">
        <path
           d="m 0,0 c 2.973,1.168 6.365,1.258 7.972,-1.963 1.406,-2.82 0.423,-6.225 -1.497,-8.514 -1.246,-1.484 1.112,-3.337 2.354,-1.857 2.763,3.291 3.674,7.988 1.716,11.914 C 8.276,4.131 3.123,4.451 -1.131,2.779 -2.93,2.072 -1.803,-0.709 0,0"
           style="fill:#fff0a5;fill-opacity:1;fill-rule:nonzero;stroke:none"
           id="path208" />
      </g>
      <g
         transform="translate(28.9082,97.0098)"
         id="g214">
        <path
           d="m 0,0 c -2.901,2.476 -6.662,2.213 -9.195,-0.619 -2.366,-2.645 -2.098,-6.569 0.462,-8.92 1.427,-1.311 3.276,1.053 1.859,2.353 -1.456,1.338 -1.106,3.293 0.034,4.707 1.388,1.725 3.445,1.436 4.982,0.125 C -0.384,-3.611 1.47,-1.252 0,0"
           style="fill:#fff0a5;fill-opacity:1;fill-rule:nonzero;stroke:none"
           id="path212" />
      </g>
      <g
         transform="translate(20.584,86.8477)"
         id="g218">
        <path
           d="m 0,0 c 10.113,-6.508 19.844,-13.668 29.646,-20.631 9.436,-6.701 19.342,-13.123 28.226,-20.56 1.486,-1.245 3.341,1.113 1.86,2.355 -8.596,7.193 -18.173,13.408 -27.296,19.9 C 22.33,-11.748 12.29,-4.359 1.859,2.355 0.246,3.393 -1.628,1.049 0,0"
           style="fill:#fff0a5;fill-opacity:1;fill-rule:nonzero;stroke:none"
           id="path216" />
      </g>
      <g
         transform="translate(27.3789,94.459)"
         id="g222">
        <path
           d="m 0,0 c 4.725,-1.889 8.216,-6.162 11.947,-9.492 4.492,-4.01 9.17,-7.82 14.083,-11.301 9.814,-6.953 19.007,-14.744 28.69,-21.875 1.555,-1.146 3.42,1.205 1.858,2.354 -10.188,7.505 -19.893,15.644 -30.221,22.962 -4.889,3.463 -9.442,7.438 -13.906,11.424 C 8.871,-2.732 5.747,0.934 1.2,2.748 -0.597,3.467 -1.798,0.717 0,0"
           style="fill:#fff0a5;fill-opacity:1;fill-rule:nonzero;stroke:none"
           id="path220" />
      </g>
      <g
         transform="translate(98.6602,34.9649)"
         id="g226">
        <path
           d="m 0,0 c -3.494,1.756 -7.73,1.869 -11.519,2.545 -2.094,0.375 -4.315,0.855 -6.068,2.125 -2.139,1.547 -1.155,4.299 -0.273,6.268 0.791,1.771 -1.961,2.964 -2.75,1.201 -2.138,-4.78 -1.363,-9.094 3.703,-11.239 4.976,-2.107 10.883,-1.224 15.706,-3.648 C 0.533,-3.621 1.72,-0.865 0,0"
           style="fill:#fff0a5;fill-opacity:1;fill-rule:nonzero;stroke:none"
           id="path224" />
      </g>
      <g
         transform="translate(84.8672,52.1172)"
         id="g230">
        <path
           d="m 0,0 c 3.995,4.34 7.492,3.355 10.885,-0.955 2.697,-3.43 4.542,-7.453 6.952,-11.074 1.071,-1.612 3.465,0.199 2.396,1.804 -3.144,4.727 -5.428,10.1 -9.647,14.022 C 6.192,7.879 1.233,5.758 -2.354,1.857 -3.667,0.432 -1.303,-1.416 0,0"
           style="fill:#fff0a5;fill-opacity:1;fill-rule:nonzero;stroke:none"
           id="path228" />
      </g>
      <g
         transform="translate(102.8975,41.2988)"
         id="g234">
        <path
           d="m 0,0 c -1.117,-2.482 -3.213,-4.393 -5.061,-6.332 -1.336,-1.4 1.031,-3.248 2.355,-1.857 2.044,2.142 4.221,4.244 5.456,6.988 C 3.546,0.566 0.793,1.762 0,0"
           style="fill:#fff0a5;fill-opacity:1;fill-rule:nonzero;stroke:none"
           id="path232" />
      </g>
      <g
         transform="translate(14.2129,115.8633)"
         id="g238">
        <path
           d="m 0,0 c -5.52,-0.918 -9.505,-6.006 -12.145,-10.566 -0.969,-1.676 1.793,-2.854 2.75,-1.202 2.062,3.563 5.411,8.067 9.746,8.788 C 2.252,-2.664 1.911,0.318 0,0"
           style="fill:#fff0a5;fill-opacity:1;fill-rule:nonzero;stroke:none"
           id="path236" />
      </g>
      <g
         transform="translate(7.3701,121.9004)"
         id="g242">
        <path
           d="m 0,0 c -6.08,-4.234 -11.116,-9.313 -14.434,-16 -0.863,-1.738 1.893,-2.928 2.75,-1.201 3.09,6.23 7.836,10.867 13.491,14.806 C 3.395,-1.289 1.587,1.105 0,0"
           style="fill:#fff0a5;fill-opacity:1;fill-rule:nonzero;stroke:none"
           id="path240" />
      </g>
      <g
         transform="translate(3.1914,126.2598)"
         id="g246">
        <path
           d="m 0,0 c -6.165,-3.113 -10.488,-7.707 -14.187,-13.467 -1.036,-1.613 1.309,-3.488 2.355,-1.859 3.394,5.285 7.28,9.677 12.962,12.547 C 2.842,-1.914 1.73,0.875 0,0"
           style="fill:#fff0a5;fill-opacity:1;fill-rule:nonzero;stroke:none"
           id="path244" />
      </g>
      <g
         transform="translate(18.7989,261.7442)"
         id="g250">
        <path
           d="m 0,0 c 1.296,11.27 -12.144,18.977 -21.126,22.139 -7.199,2.533 -23.606,4.224 -24.993,-6.856 -1.087,-8.685 9.061,-14.853 15.612,-18.076 8.641,-4.25 25.261,-8.69 30.42,2.42 C 0.729,1.385 -2.088,2.418 -2.898,0.674 -7.161,-8.504 -22.669,-3.09 -29.46,0.017 -34.688,2.412 -43.284,7.592 -43.226,14.252 -43.096,28.973 -1.048,17.16 -2.984,0.301 -3.206,-1.627 -0.22,-1.918 0,0"
           style="fill:#ffb03b;fill-opacity:1;fill-rule:nonzero;stroke:none"
           id="path248" />
      </g>
      <g
         transform="translate(-27.5556,278.0996)"
         id="g254">
        <path
           d="m 0,0 c -11.385,-27.537 40.049,-44.801 46.355,-16.355 0.418,1.89 -2.572,2.164 -2.985,0.3 C 38.099,-39.834 -7.039,-24.873 2.811,-1.047 3.552,0.744 0.737,1.785 0,0"
           style="fill:#ffb03b;fill-opacity:1;fill-rule:nonzero;stroke:none"
           id="path252" />
      </g>
      <g
         transform="translate(6.752,271.5684)"
         id="g258">
        <path
           d="m 0,0 c -7.227,0.344 -14.456,-0.221 -21.683,0.123 -1.927,0.092 -2.231,-2.893 -0.298,-2.984 7.226,-0.346 14.455,0.218 21.682,-0.125 C 1.629,-3.076 1.933,-0.092 0,0"
           style="fill:#ffb03b;fill-opacity:1;fill-rule:nonzero;stroke:none"
           id="path256" />
      </g>
      <g
         transform="translate(4.6319,262.7696)"
         id="g262">
        <path
           d="M 0,0 C -5.002,5.041 -9.437,10.588 -14.163,15.881 -15.447,17.318 -17.754,15.4 -16.462,13.953 -11.735,8.66 -7.302,3.113 -2.298,-1.93 -0.948,-3.291 1.366,-1.377 0,0"
           style="fill:#ffb03b;fill-opacity:1;fill-rule:nonzero;stroke:none"
           id="path260" />
      </g>
      <g
         transform="translate(135.9268,39.8965)"
         id="g266">
        <path
           d="m 0,0 c -5.785,-9.352 -8.686,-20.666 -12.87,-30.77 -3.737,-9.027 -9.785,-25.543 -21.184,-27.003 -9.294,-1.194 -10.519,11.017 -7.341,16.978 2.861,5.369 7.079,10.09 10.983,14.709 8.212,9.717 17.845,18.828 24.591,29.68 1.024,1.646 -1.607,3.092 -2.622,1.457 -8.046,-12.942 -19.931,-23.506 -29.359,-35.428 -3.116,-3.939 -6.928,-8.445 -8.023,-13.482 -1.276,-5.872 0.887,-14.719 7.554,-16.422 12.523,-3.203 20.339,11.543 24.777,20.736 5.941,12.309 8.915,26.445 16.116,38.088 C 3.644,0.193 1.013,1.639 0,0"
           style="fill:#ffb03b;fill-opacity:1;fill-rule:nonzero;stroke:none"
           id="path264" />
      </g>
      <g
         transform="translate(102.3575,-12.6875)"
         id="g270">
        <path
           d="M 0,0 C 7.054,-1.424 10.335,10.854 3.628,13.064 -0.339,14.375 -3.747,10.408 -4.656,7.029 -5.767,2.906 -3.207,-0.91 1.227,-0.379 3.131,-0.15 3.059,2.852 1.136,2.621 -1.444,2.313 -2.26,3.963 -1.741,6.322 -1.29,8.373 0.581,10.703 2.921,10.15 5.808,9.469 4.041,2.242 0.709,2.914 -1.183,3.297 -1.898,0.381 0,0"
           style="fill:#ffb03b;fill-opacity:1;fill-rule:nonzero;stroke:none"
           id="path268" />
      </g>
      <g
         transform="translate(137.4649,37.9571)"
         id="g274">
        <path
           d="M 0,0 C 8.543,-2.207 17.235,-1.568 23.233,5.551 24.475,7.025 22.319,9.111 21.072,7.633 15.73,1.291 8.267,0.961 0.708,2.914 -1.166,3.398 -1.872,0.484 0,0"
           style="fill:#ffb03b;fill-opacity:1;fill-rule:nonzero;stroke:none"
           id="path272" />
      </g>
      <g
         transform="translate(129.8575,46.3574)"
         id="g278">
        <path
           d="m 0,0 c -8.506,3.754 -15.147,13.678 -8.914,22.291 1.135,1.568 -1.505,3.004 -2.623,1.459 C -18.675,13.885 -11.379,1.756 -1.458,-2.623 0.3,-3.398 1.767,-0.781 0,0"
           style="fill:#ffb03b;fill-opacity:1;fill-rule:nonzero;stroke:none"
           id="path276" />
      </g>
      <g
         transform="translate(160.6944,46.1914)"
         id="g282">
        <path
           d="m 0,0 c -12.158,9.99 -24.573,20.398 -40.163,24.328 -1.877,0.473 -2.583,-2.443 -0.708,-2.914 C -25.806,17.617 -13.829,7.49 -2.083,-2.16 -0.596,-3.383 1.494,-1.229 0,0"
           style="fill:#ffb03b;fill-opacity:1;fill-rule:nonzero;stroke:none"
           id="path280" />
      </g>
      <g
         transform="translate(160.9785,43.4883)"
         id="g286">
        <path
           d="m 0,0 c 10.366,8.891 16.999,22.4 29.491,28.697 1.73,0.873 0.156,3.428 -1.561,2.563 C 15.169,24.826 8.417,11.154 -2.16,2.084 -3.63,0.822 -1.453,-1.246 0,0"
           style="fill:#ffb03b;fill-opacity:1;fill-rule:nonzero;stroke:none"
           id="path284" />
      </g>
      <g
         transform="translate(120.6973,69.2305)"
         id="g290">
        <path
           d="m 0,0 c 5.888,13.002 12.178,25.873 20.167,37.734 1.084,1.61 -1.552,3.047 -2.622,1.459 C 9.556,27.332 3.265,14.461 -2.623,1.459 -3.417,-0.295 -0.798,-1.76 0,0"
           style="fill:#ffb03b;fill-opacity:1;fill-rule:nonzero;stroke:none"
           id="path288" />
      </g>
      <g
         transform="translate(189.9424,75.2305)"
         id="g294">
        <path
           d="m 0,0 c -4.259,0.014 -8.5,0.184 -12.738,-0.332 0.502,-0.617 1.003,-1.234 1.505,-1.854 0.516,2.377 1.309,4.588 2.281,6.821 0.49,1.123 -0.384,2.627 -1.741,2.166 -3.461,-1.172 -6.883,-2.203 -10.525,-2.645 0.501,-0.619 1.003,-1.236 1.505,-1.853 0.664,3.105 0.73,6.226 0.887,9.388 0.097,1.932 -2.903,1.83 -2.999,-0.091 -0.144,-2.889 -0.195,-5.748 -0.804,-8.59 -0.188,-0.883 0.501,-1.975 1.504,-1.854 3.896,0.473 7.581,1.512 11.292,2.77 -0.58,0.722 -1.161,1.445 -1.741,2.168 -1.08,-2.481 -1.999,-4.922 -2.575,-7.571 -0.192,-0.882 0.503,-1.976 1.504,-1.853 4.238,0.514 8.478,0.346 12.738,0.332 C 2.026,-3.004 1.935,-0.006 0,0"
           style="fill:#ffb03b;fill-opacity:1;fill-rule:nonzero;stroke:none"
           id="path292" />
      </g>
      <g
         transform="translate(169.5889,88.6582)"
         id="g298">
        <path
           d="m 0,0 c -3.955,-0.191 -7.744,-1.096 -11.539,-2.189 0.643,-0.465 1.287,-0.928 1.93,-1.391 0.177,2.814 0.353,5.629 0.53,8.443 0.059,0.955 -1.07,1.688 -1.93,1.391 C -14.081,5.199 -16.885,3.5 -20,2.58 c 0.643,-0.465 1.286,-0.928 1.929,-1.393 0.067,3.141 -0.375,6.231 -0.544,9.36 -0.104,1.928 -3.104,1.846 -2.998,-0.09 0.168,-3.131 0.61,-6.223 0.543,-9.361 -0.022,-0.979 1.037,-1.655 1.929,-1.391 3.124,0.922 5.915,2.619 8.992,3.676 -0.644,0.463 -1.287,0.928 -1.93,1.39 -0.176,-2.814 -0.354,-5.63 -0.528,-8.443 -0.064,-0.988 1.065,-1.642 1.928,-1.392 C -7.137,-4.043 -3.604,-3.178 0.092,-3 2.02,-2.906 1.936,0.094 0,0"
           style="fill:#ffb03b;fill-opacity:1;fill-rule:nonzero;stroke:none"
           id="path296" />
      </g>
      <g
         transform="translate(148.4659,101.3028)"
         id="g302">
        <path
           d="m 0,0 c -3.02,-1.389 -6.117,-2.58 -9.221,-3.766 0.622,-0.336 1.245,-0.672 1.867,-1.008 -0.605,3.586 -0.564,7.325 -0.359,10.948 0.11,1.929 -2.89,1.826 -2.999,-0.092 -0.222,-3.908 -0.168,-7.85 0.483,-11.715 0.13,-0.767 1.171,-1.273 1.869,-1.006 3.343,1.274 6.668,2.58 9.921,4.078 C 3.317,-1.752 1.737,0.799 0,0"
           style="fill:#ffb03b;fill-opacity:1;fill-rule:nonzero;stroke:none"
           id="path300" />
      </g>
      <g
         transform="translate(156.1944,48.3106)"
         id="g306">
        <path
           d="m 0,0 c 5.255,4.637 7.967,11.738 14.234,15.24 1.693,0.947 0.126,3.506 -1.559,2.565 C 6.119,14.141 3.313,6.912 -2.16,2.082 -3.614,0.799 -1.439,-1.27 0,0"
           style="fill:#ffb03b;fill-opacity:1;fill-rule:nonzero;stroke:none"
           id="path304" />
      </g>
      <g
         transform="translate(157.5205,65.4356)"
         id="g310">
        <path
           d="m 0,0 c -2.712,-3.49 -5.061,-7.494 -9.079,-9.629 -1.712,-0.91 -0.141,-3.465 1.56,-2.562 4.275,2.271 6.793,6.394 9.679,10.107 C 3.336,-0.568 1.186,1.525 0,0"
           style="fill:#ffb03b;fill-opacity:1;fill-rule:nonzero;stroke:none"
           id="path308" />
      </g>
      <g
         transform="translate(157.502,70.3164)"
         id="g314">
        <path
           d="m 0,0 c 3.538,5.195 7.723,9.871 11.998,14.463 1.319,1.416 -0.841,3.498 -2.16,2.082 C 5.382,11.762 1.062,6.869 -2.622,1.457 -3.714,-0.145 -1.078,-1.584 0,0"
           style="fill:#ffb03b;fill-opacity:1;fill-rule:nonzero;stroke:none"
           id="path312" />
      </g>
      <g
         transform="translate(139.7471,60.9278)"
         id="g318">
        <path
           d="m 0,0 c 4.605,5.549 8.179,11.859 12.951,17.275 1.278,1.45 -0.881,3.533 -2.16,2.082 C 6.017,13.937 2.444,7.633 -2.16,2.082 -3.39,0.6 -1.235,-1.488 0,0"
           style="fill:#ffb03b;fill-opacity:1;fill-rule:nonzero;stroke:none"
           id="path316" />
      </g>
      <g
         transform="translate(132.9561,65.3106)"
         id="g322">
        <path
           d="M 0,0 C 2.004,2.693 3.531,6.246 6.177,8.373 7.685,9.584 5.502,11.648 4.017,10.455 1.348,8.311 -0.148,4.787 -2.159,2.082 -3.299,0.549 -1.15,-1.549 0,0"
           style="fill:#ffb03b;fill-opacity:1;fill-rule:nonzero;stroke:none"
           id="path320" />
      </g>
      <g
         transform="translate(133.2764,76.0742)"
         id="g326">
        <path
           d="m 0,0 c 3.939,8.146 9.279,15.59 16.117,21.553 1.461,1.273 -0.716,3.342 -2.16,2.082 C 6.947,17.521 1.416,9.809 -2.622,1.457 -3.462,-0.279 -0.841,-1.744 0,0"
           style="fill:#ffb03b;fill-opacity:1;fill-rule:nonzero;stroke:none"
           id="path324" />
      </g>
      <g
         transform="translate(115.5332,232.7949)"
         id="g330">
        <path
           d="m 0,0 c 12.302,11.139 27.318,-5.412 36.609,-13.063 1.494,-1.228 3.424,1.067 1.929,2.297 C 28.189,-2.242 11.921,14.813 -1.733,2.449 -3.147,1.168 -1.434,-1.299 0,0"
           style="fill:#b64926;fill-opacity:1;fill-rule:nonzero;stroke:none"
           id="path328" />
      </g>
      <g
         transform="translate(148.2793,276.8946)"
         id="g334">
        <path
           d="m 0,0 c -12.548,-11.52 11.778,-30.492 19.686,-37.137 1.482,-1.244 3.411,1.053 1.928,2.299 C 15.555,-29.748 -8.039,-11.42 1.732,-2.449 3.137,-1.16 1.425,1.309 0,0"
           style="fill:#b64926;fill-opacity:1;fill-rule:nonzero;stroke:none"
           id="path332" />
      </g>
      <g
         transform="translate(167.8887,241.0371)"
         id="g338">
        <path
           d="m 0,0 c -3.967,-7.397 -11.833,-11.652 -15.625,-19.199 -0.871,-1.735 1.846,-3.008 2.712,-1.283 3.769,7.502 11.649,11.785 15.625,19.197 C 3.629,0.426 0.91,1.697 0,0"
           style="fill:#b64926;fill-opacity:1;fill-rule:nonzero;stroke:none"
           id="path336" />
      </g>
      <g
         transform="translate(150.1104,276.8184)"
         id="g342">
        <path
           d="m 0,0 c -11.641,7.709 -25.424,5.397 -35.195,-4.199 -4.892,-4.805 -7.832,-11.449 -8.473,-18.225 -0.759,-8.035 2.919,-14.65 6.999,-21.24 1.02,-1.647 3.466,0.092 2.45,1.732 -3.725,6.018 -6.843,11.684 -6.497,18.965 0.267,5.602 2.793,10.83 6.265,15.127 7.97,9.867 21.869,12.598 32.521,5.543 C -0.334,-3.353 1.612,-1.068 0,0"
           style="fill:#b64926;fill-opacity:1;fill-rule:nonzero;stroke:none"
           id="path340" />
      </g>
      <g
         transform="translate(120.8653,238.4727)"
         id="g346">
        <path
           d="m 0,0 c -3.532,7.125 -4.454,14.955 -0.74,22.199 4.74,9.244 16.006,11.256 25.297,9.709 1.91,-0.318 2.451,2.633 0.544,2.949 C 14.891,36.559 4.406,34.369 -2.051,25.723 -7.895,17.895 -6.933,7.266 -2.813,-1.045 -1.963,-2.76 0.86,-1.736 0,0"
           style="fill:#b64926;fill-opacity:1;fill-rule:nonzero;stroke:none"
           id="path344" />
      </g>
      <g
         transform="translate(137.4961,232.7481)"
         id="g350">
        <path
           d="m 0,0 c -9.892,-12.422 -21.381,-22.617 -33.932,-32.234 -4.345,-3.331 -9.127,-7.157 -11.868,-11.996 -1.546,-2.731 -3.972,-8.336 -0.656,-10.872 7.092,-5.421 19.791,3.377 25.215,7.403 13.851,10.279 21.549,26.271 34.511,37.301 1.459,1.242 -0.256,3.705 -1.733,2.449 -9.633,-8.196 -16.348,-19.315 -24.924,-28.545 -6.796,-7.315 -18.214,-17.936 -29.243,-17.059 -7.01,0.559 2.459,11.854 4.335,13.717 4.013,3.982 8.815,7.152 13.289,10.576 10.217,7.82 19.307,17.287 27.303,27.33 C 3.501,-0.418 1.207,1.516 0,0"
           style="fill:#b64926;fill-opacity:1;fill-rule:nonzero;stroke:none"
           id="path348" />
      </g>
      <g
         transform="translate(115.416,207.3789)"
         id="g354">
        <path
           d="m 0,0 c 2.811,-4.102 7.029,-6.893 10.125,-10.738 1.205,-1.5 3.666,0.22 2.449,1.732 C 9.481,-5.16 5.25,-2.354 2.45,1.734 1.357,3.33 -1.095,1.598 0,0"
           style="fill:#b64926;fill-opacity:1;fill-rule:nonzero;stroke:none"
           id="path352" />
      </g>
      <g
         transform="translate(112.6758,206.3067)"
         id="g358">
        <path
           d="m 0,0 c -0.738,-6.121 2.434,-11.689 4.736,-17.143 0.749,-1.775 3.568,-0.742 2.813,1.045 C 5.505,-11.256 2.294,-5.986 2.951,-0.541 3.183,1.371 0.232,1.922 0,0"
           style="fill:#b64926;fill-opacity:1;fill-rule:nonzero;stroke:none"
           id="path356" />
      </g>
      <g
         transform="translate(106.9532,202.3848)"
         id="g362">
        <path
           d="m 0,0 c -2.106,-6.275 -2.417,-14.742 0.985,-20.621 0.969,-1.674 3.412,0.07 2.45,1.732 C 0.64,-14.059 0.987,-6.426 2.713,-1.281 3.321,0.533 0.614,1.832 0,0"
           style="fill:#b64926;fill-opacity:1;fill-rule:nonzero;stroke:none"
           id="path360" />
      </g>
      <g
         transform="translate(97.5664,195.3516)"
         id="g366">
        <path
           d="m 0,0 c -2.18,-5.734 0.549,-10.869 2.086,-16.383 0.519,-1.863 3.329,-0.808 2.812,1.045 C 3.633,-10.797 0.903,-6.041 2.712,-1.283 3.396,0.516 0.687,1.809 0,0"
           style="fill:#b64926;fill-opacity:1;fill-rule:nonzero;stroke:none"
           id="path364" />
      </g>
      <g
         transform="translate(28.0801,161.3477)"
         id="g370">
        <path
           d="m 0,0 c -2.961,16.328 19.024,20.338 30.427,24.187 1.834,0.62 0.903,3.471 -0.932,2.852 C 16.793,22.752 -6.282,17.945 -2.994,-0.18 -2.654,-2.057 0.347,-1.904 0,0"
           style="fill:#468966;fill-opacity:1;fill-rule:nonzero;stroke:none"
           id="path368" />
      </g>
      <g
         transform="translate(7.9268,212.4434)"
         id="g374">
        <path
           d="m 0,0 c 3.154,-16.738 32.114,-6.102 41.931,-2.895 1.839,0.6 0.908,3.452 -0.932,2.85 C 33.475,-2.502 5.451,-12.857 2.995,0.178 2.643,2.051 -0.357,1.9 0,0"
           style="fill:#468966;fill-opacity:1;fill-rule:nonzero;stroke:none"
           id="path372" />
      </g>
      <g
         transform="translate(48.7325,210.1563)"
         id="g378">
        <path
           d="m 0,0 c 4.184,-7.271 3.644,-16.199 8.052,-23.406 1.011,-1.655 3.529,-0.022 2.521,1.625 C 6.193,-14.619 6.717,-5.664 2.522,1.625 1.554,3.309 -0.961,1.672 0,0"
           style="fill:#468966;fill-opacity:1;fill-rule:nonzero;stroke:none"
           id="path376" />
      </g>
      <g
         transform="translate(8.958,213.9571)"
         id="g382">
        <path
           d="m 0,0 c -12.693,-5.812 -18.009,-18.738 -15.02,-32.104 1.495,-6.691 5.586,-12.699 11.001,-16.82 6.422,-4.887 13.981,-5.258 21.734,-5.273 1.935,-0.004 1.751,2.992 -0.179,2.994 -7.078,0.015 -13.536,0.359 -19.536,4.5 -4.616,3.183 -7.721,8.092 -9.537,13.308 -4.169,11.979 0.853,25.223 12.47,30.543 C 2.672,-2.055 1.759,0.807 0,0"
           style="fill:#468966;fill-opacity:1;fill-rule:nonzero;stroke:none"
           id="path380" />
      </g>
      <g
         transform="translate(26.0762,168.8731)"
         id="g386">
        <path
           d="m 0,0 c -7.916,0.764 -15.053,4.115 -19.242,11.096 -5.346,8.906 -1.105,19.535 5.115,26.607 1.279,1.455 -0.942,3.473 -2.218,2.022 C -23.181,31.951 -26.858,21.892 -22.926,11.842 -19.366,2.748 -9.831,-2.051 -0.598,-2.941 1.306,-3.125 1.929,-0.187 0,0"
           style="fill:#468966;fill-opacity:1;fill-rule:nonzero;stroke:none"
           id="path384" />
      </g>
      <g
         transform="translate(39.7198,179.9707)"
         id="g390">
        <path
           d="m 0,0 c 5.325,-14.957 11.763,-52.973 13.301,-68.709 0.533,-5.449 1.258,-11.531 3.92,-16.414 1.501,-2.754 4.98,-7.777 8.883,-6.299 8.349,3.16 7.584,18.59 7.031,25.322 C 31.722,-48.91 18.359,-11.055 15.837,5.779 15.555,7.674 12.555,7.518 12.844,5.6 14.716,-6.908 24.46,-41.355 27.768,-53.514 c 2.623,-9.632 5.611,-24.937 -0.959,-33.84 -4.175,-5.658 -8.767,8.348 -9.358,10.924 -1.263,5.51 -1.417,11.264 -1.962,16.871 C 14.242,-46.754 7.157,-11.162 2.851,0.932 2.203,2.756 -0.649,1.826 0,0"
           style="fill:#468966;fill-opacity:1;fill-rule:nonzero;stroke:none"
           id="path388" />
      </g>
      <g
         transform="translate(53.4483,124.9512)"
         id="g394">
        <path
           d="M 0,0 C 4.969,0.221 9.565,2.328 14.468,2.926 16.377,3.158 16.217,6.154 14.291,5.92 9.391,5.326 4.772,3.215 -0.177,2.996 -2.109,2.91 -1.934,-0.086 0,0"
           style="fill:#468966;fill-opacity:1;fill-rule:nonzero;stroke:none"
           id="path392" />
      </g>
      <g
         transform="translate(52.9121,122.0586)"
         id="g398">
        <path
           d="m 0,0 c 4.809,-3.861 11.212,-4.107 17.06,-5.031 1.902,-0.303 2.513,2.636 0.597,2.939 C 12.467,-1.271 6.296,-1.215 2.02,2.219 0.517,3.426 -1.509,1.211 0,0"
           style="fill:#468966;fill-opacity:1;fill-rule:nonzero;stroke:none"
           id="path396" />
      </g>
      <g
         transform="translate(53.2207,115.127)"
         id="g402">
        <path
           d="m 0,0 c 4.217,-5.102 11.241,-9.838 18.032,-10.053 1.932,-0.062 1.742,2.934 -0.177,2.994 C 12.276,-6.881 5.977,-2.555 2.522,1.625 1.303,3.102 -1.23,1.488 0,0"
           style="fill:#468966;fill-opacity:1;fill-rule:nonzero;stroke:none"
           id="path400" />
      </g>
      <g
         transform="translate(54.2364,103.4414)"
         id="g406">
        <path
           d="m 0,0 c 3.719,-4.879 9.52,-5.275 15.014,-6.881 1.856,-0.543 2.444,2.402 0.598,2.942 C 11.087,-2.617 5.606,-2.422 2.522,1.625 1.355,3.156 -1.173,1.539 0,0"
           style="fill:#468966;fill-opacity:1;fill-rule:nonzero;stroke:none"
           id="path404" />
      </g>
      <g
         transform="translate(239.8926,94.2656)"
         id="g410">
        <path
           d="m 0,0 c -19.536,11.969 -43.261,-10.148 -31.549,-30.264 0.97,-1.666 3.618,-0.254 2.642,1.422 -10.179,17.485 10.257,36.75 27.312,26.301 C 0.056,-3.553 1.651,-1.012 0,0"
           style="fill:#b64926;fill-opacity:1;fill-rule:nonzero;stroke:none"
           id="path408" />
      </g>
      <g
         transform="translate(238.3838,94.3164)"
         id="g414">
        <path
           d="m 0,0 c -11.174,-4.807 -17.037,-18.59 -12.2,-29.82 0.764,-1.776 3.402,-0.344 2.641,1.422 -4.23,9.824 1.419,21.642 10.982,25.755 C 3.198,-1.879 1.766,0.76 0,0"
           style="fill:#b64926;fill-opacity:1;fill-rule:nonzero;stroke:none"
           id="path412" />
      </g>
      <g
         transform="translate(247.0977,85.8438)"
         id="g418">
        <path
           d="m 0,0 c 5.615,-6.088 10.397,-14.438 7.79,-22.93 -2.742,-8.928 -14.245,-12.236 -22.395,-10.982 -1.915,0.295 -2.021,-2.707 -0.133,-2.998 9.268,-1.426 21.08,2.543 24.914,11.916 C 14.149,-15.281 8.76,-5.072 2.188,2.055 0.876,3.476 -1.314,1.424 0,0"
           style="fill:#b64926;fill-opacity:1;fill-rule:nonzero;stroke:none"
           id="path416" />
      </g>
      <g
         transform="translate(246.7295,86.5352)"
         id="g422">
        <path
           d="m 0,0 c 2.298,-10.074 -7.487,-21.736 -17.85,-21.068 -1.935,0.125 -2.057,-2.873 -0.131,-2.998 C -5.67,-24.861 5.647,-11.275 2.924,0.67 2.493,2.557 -0.431,1.887 0,0"
           style="fill:#b64926;fill-opacity:1;fill-rule:nonzero;stroke:none"
           id="path420" />
      </g>
      <g
         transform="translate(228.9326,64.7715)"
         id="g426">
        <path
           d="m 0,0 c -5.511,6.068 -13.497,5.896 -19.485,0.58 -6.528,-5.797 -6.161,-14.887 -0.51,-21.014 C -7.517,-33.961 13.511,-12.809 0,0 -1.396,1.324 -3.596,-0.717 -2.188,-2.053 8.026,-11.736 -6.316,-27.99 -17.056,-19.094 -28.992,-9.207 -12.654,9.473 -2.188,-2.053 -0.887,-3.486 1.303,-1.434 0,0"
           style="fill:#b64926;fill-opacity:1;fill-rule:nonzero;stroke:none"
           id="path424" />
      </g>
      <g
         transform="translate(223.8428,59.6035)"
         id="g430">
        <path
           d="M 0,0 C -2.66,2.93 -6.611,2.846 -9.497,0.285 -12.618,-2.486 -12.46,-6.924 -9.752,-9.861 -3.69,-16.434 6.541,-6.201 0,0 c -1.397,1.324 -3.596,-0.717 -2.188,-2.053 1.661,-1.574 1.73,-3.445 0.4,-5.263 -1.275,-1.741 -3.786,-2.178 -5.457,-0.793 -4.231,3.504 1.388,10.097 5.057,6.056 C -0.887,-3.486 1.302,-1.434 0,0"
           style="fill:#b64926;fill-opacity:1;fill-rule:nonzero;stroke:none"
           id="path428" />
      </g>
      <g
         transform="translate(206.4473,62.041)"
         id="g434">
        <path
           d="m 0,0 c -11.285,-5.949 -21.997,-12.894 -31.754,-21.127 -4.934,-4.162 -9.587,-8.769 -13.654,-13.785 -3.197,-3.945 -7.903,-8.858 -8.174,-14.184 -0.132,-2.603 2.056,-5.679 4.738,-5.98 5.303,-0.596 10.111,5.724 13.637,8.871 6.039,5.389 11.852,11.031 17.686,16.641 5.639,5.418 11.624,10.656 19.53,12.125 1.904,0.355 1.226,3.277 -0.67,2.925 -10.314,-1.918 -17.65,-9.736 -24.918,-16.713 -4.505,-4.324 -9.047,-8.607 -13.683,-12.791 -2.307,-2.084 -4.663,-4.113 -7.038,-6.119 -1.797,-2.412 -3.852,-2.326 -6.168,0.254 -0.765,2.16 1.092,4.315 2.136,5.959 11.599,18.264 30.951,31.369 49.756,41.282 C 3.134,-1.74 1.714,0.902 0,0"
           style="fill:#b64926;fill-opacity:1;fill-rule:nonzero;stroke:none"
           id="path432" />
      </g>
      <g
         transform="translate(227.168,46.7949)"
         id="g438">
        <path
           d="m 0,0 c -2.048,-20.977 -6.977,-42.523 -18.595,-60.396 -0.559,-0.842 -1.135,-1.674 -1.729,-2.493 -0.788,-0.812 -1.576,-1.625 -2.364,-2.437 -4.065,0.873 -5.382,2.615 -3.953,5.222 0.935,2.965 1.963,5.899 3.002,8.829 2.087,5.884 4.376,11.697 6.67,17.504 3.716,9.408 8.131,19.083 5.999,29.392 -0.392,1.895 -3.315,1.223 -2.924,-0.67 1.534,-7.416 -0.772,-14.258 -3.325,-21.148 -2.784,-7.51 -5.887,-14.897 -8.646,-22.416 -1.731,-4.719 -5.706,-11.643 -4.126,-16.741 0.92,-2.966 4.935,-4.209 7.616,-3.08 4.599,1.934 7.175,7.588 9.521,11.688 3.204,5.601 5.676,11.625 7.811,17.701 4.394,12.51 6.755,25.748 8.04,38.914 C 3.187,1.801 0.187,1.916 0,0"
           style="fill:#b64926;fill-opacity:1;fill-rule:nonzero;stroke:none"
           id="path436" />
      </g>
      <g
         transform="translate(185.5879,47.6406)"
         id="g442">
        <path
           d="m 0,0 c -0.464,-4.1 2.816,-7.338 5.649,-9.809 1.444,-1.259 3.649,0.78 2.188,2.053 -2.188,1.908 -5.202,4.414 -4.84,7.625 C 3.216,1.797 0.216,1.908 0,0"
           style="fill:#b64926;fill-opacity:1;fill-rule:nonzero;stroke:none"
           id="path440" />
      </g>
      <g
         transform="translate(212.0039,19.877)"
         id="g446">
        <path
           d="m 0,0 c 3.176,-2.066 6.966,-3.146 10.746,-2.607 1.916,0.273 1.232,3.195 -0.67,2.923 C 7.102,-0.105 4.065,0.934 1.594,2.541 -0.03,3.598 -1.622,1.055 0,0"
           style="fill:#b64926;fill-opacity:1;fill-rule:nonzero;stroke:none"
           id="path444" />
      </g>
      <g
         transform="translate(177.7071,41.4942)"
         id="g450">
        <path
           d="M 0,0 C 0.85,-4.187 3.168,-8.166 6.657,-10.678 8.23,-11.809 9.815,-9.262 8.252,-8.137 5.409,-6.09 3.611,-2.713 2.925,0.67 2.539,2.566 -0.384,1.893 0,0"
           style="fill:#b64926;fill-opacity:1;fill-rule:nonzero;stroke:none"
           id="path448" />
      </g>
      <g
         transform="translate(171.252,36.084)"
         id="g454">
        <path
           d="m 0,0 c 0.679,-4.676 3.348,-8.063 6.709,-11.209 1.404,-1.314 3.605,0.728 2.188,2.053 -3,2.808 -5.365,5.638 -5.973,9.826 C 2.646,2.586 -0.276,1.9 0,0"
           style="fill:#b64926;fill-opacity:1;fill-rule:nonzero;stroke:none"
           id="path452" />
      </g>
      <g
         transform="translate(164.709,30.5488)"
         id="g458">
        <path
           d="m 0,0 c -0.248,-5.178 3.201,-8.654 6.244,-12.408 1.219,-1.502 3.402,0.558 2.189,2.054 C 5.947,-7.289 2.794,-4.387 2.998,-0.131 3.091,1.805 0.093,1.93 0,0"
           style="fill:#b64926;fill-opacity:1;fill-rule:nonzero;stroke:none"
           id="path456" />
      </g>
      <g
         transform="translate(157.7862,21.7168)"
         id="g462">
        <path
           d="M 0,0 C 1.389,-3.902 2.368,-7.301 6.071,-9.615 7.713,-10.641 9.308,-8.1 7.665,-7.074 4.702,-5.223 4.03,-2.441 2.924,0.67 2.283,2.469 -0.648,1.82 0,0"
           style="fill:#b64926;fill-opacity:1;fill-rule:nonzero;stroke:none"
           id="path460" />
      </g>
      <g
         transform="translate(209.6475,14.1778)"
         id="g466">
        <path
           d="m 0,0 c 2.737,-3.084 6.761,-3.17 10.52,-3.957 1.879,-0.393 2.79,2.467 0.899,2.863 C 8.285,-0.439 4.47,-0.518 2.187,2.053 0.903,3.5 -1.284,1.445 0,0"
           style="fill:#b64926;fill-opacity:1;fill-rule:nonzero;stroke:none"
           id="path464" />
      </g>
      <g
         transform="translate(205.7461,6.1328)"
         id="g470">
        <path
           d="m 0,0 c 3.813,-2.508 7.776,-4.332 12.366,-4.744 1.933,-0.176 2.05,2.824 0.132,2.996 C 8.428,-1.379 4.965,0.324 1.594,2.541 -0.025,3.607 -1.616,1.062 0,0"
           style="fill:#b64926;fill-opacity:1;fill-rule:nonzero;stroke:none"
           id="path468" />
      </g>
      <g
         transform="translate(203.3496,-1.6269)"
         id="g474">
        <path
           d="m 0,0 c 3.143,-3.064 6.958,-4.311 11.302,-4.275 1.931,0.015 2.066,3.013 0.133,2.998 -3.554,-0.03 -6.654,0.8 -9.247,3.33 C 0.808,3.398 -1.39,1.355 0,0"
           style="fill:#b64926;fill-opacity:1;fill-rule:nonzero;stroke:none"
           id="path472" />
      </g>
      <g
         transform="translate(-55.9023,78.043)"
         id="g478">
        <path
           d="m 0,0 c 21.051,-1.02 42.814,-4.889 61.234,-15.619 0.868,-0.518 1.727,-1.053 2.574,-1.608 0.849,-0.746 1.7,-1.494 2.549,-2.24 -0.673,-4.103 -2.348,-5.504 -5.022,-4.203 -3.007,0.787 -5.988,1.672 -8.965,2.566 -5.979,1.797 -11.897,3.799 -17.809,5.805 -9.579,3.252 -19.459,7.19 -29.65,4.557 -1.875,-0.485 -1.059,-3.371 0.812,-2.889 7.332,1.895 14.279,-0.074 21.286,-2.287 7.636,-2.412 15.165,-5.152 22.811,-7.539 4.797,-1.498 11.907,-5.131 16.922,-3.303 2.918,1.063 3.963,5.135 2.704,7.758 -2.157,4.498 -7.929,6.795 -12.139,8.937 -5.751,2.926 -11.888,5.102 -18.063,6.936 C 26.536,0.648 13.197,2.359 -0.016,3 -1.953,3.094 -1.922,0.094 0,0"
           style="fill:#ffb03b;fill-opacity:1;fill-rule:nonzero;stroke:none"
           id="path476" />
      </g>
      <g
         transform="translate(2.1455,53.3184)"
         id="g482">
        <path
           d="M 0,0 C 3.086,1.928 5.118,6.424 4.679,10.02 4.445,11.92 1.444,11.92 1.678,10.006 1.993,7.432 0.713,3.982 -1.55,2.568 -3.186,1.545 -1.644,-1.029 0,0"
           style="fill:#ffb03b;fill-opacity:1;fill-rule:nonzero;stroke:none"
           id="path480" />
      </g>
      <g
         transform="translate(198.2735,189.4942)"
         id="g486">
        <path
           d="m 0,0 c -7.851,0.711 -20.612,-0.727 -23.203,-9.906 -1.934,-6.854 8.128,-8.77 12.673,-8.877 5.898,-0.139 14.323,1.248 18.109,6.334 C 12.272,-6.143 6.692,-0.287 0,0 c -1.936,0.082 -1.928,-2.918 0,-3 3.435,-0.148 7.785,-2.18 5.896,-6.564 -0.721,-1.67 -2.401,-2.721 -3.911,-3.581 -3.387,-1.925 -7.662,-2.472 -11.48,-2.628 -3.257,-0.135 -13.235,0.572 -10.206,6.668 C -16.538,-2.742 -5.92,-2.463 0,-3 1.927,-3.176 1.91,-0.174 0,0"
           style="fill:#468966;fill-opacity:1;fill-rule:nonzero;stroke:none"
           id="path484" />
      </g>
      <g
         transform="translate(186.2578,125.4278)"
         id="g490">
        <path
           d="m 0,0 c 3.912,-6.092 11.559,-6.615 18.097,-5.578 5.651,0.896 13.761,4.23 14.726,10.689 0.282,1.893 -2.607,2.705 -2.892,0.797 C 28.439,-4.072 7.58,-6.256 2.591,1.514 1.549,3.135 -1.049,1.633 0,0"
           style="fill:#468966;fill-opacity:1;fill-rule:nonzero;stroke:none"
           id="path488" />
      </g>
      <g
         transform="translate(174.7813,176.8184)"
         id="g494">
        <path
           d="m 0,0 c 1.863,-17.572 3.628,-35.293 11.477,-51.391 0.847,-1.74 3.434,-0.218 2.59,1.514 C 6.463,-34.281 4.805,-17.021 3,0 2.798,1.904 -0.204,1.924 0,0"
           style="fill:#468966;fill-opacity:1;fill-rule:nonzero;stroke:none"
           id="path492" />
      </g>
      <g
         transform="translate(204.6348,181.5293)"
         id="g498">
        <path
           d="m 0,0 c 1.273,-17.576 6.228,-34.285 11.554,-50.99 0.585,-1.836 3.481,-1.051 2.892,0.797 C 9.206,-33.75 4.254,-17.305 3,0 2.86,1.918 -0.141,1.932 0,0"
           style="fill:#468966;fill-opacity:1;fill-rule:nonzero;stroke:none"
           id="path496" />
      </g>
      <g
         transform="translate(193.3623,180.834)"
         id="g502">
        <path
           d="m 0,0 c -1.898,4.199 -2.129,8.986 -2.282,13.523 -0.066,1.93 -3.066,1.936 -3,0 C -5.109,8.412 -4.723,3.201 -2.591,-1.514 -1.794,-3.273 0.791,-1.748 0,0"
           style="fill:#468966;fill-opacity:1;fill-rule:nonzero;stroke:none"
           id="path500" />
      </g>
      <g
         transform="translate(190.5498,193.0645)"
         id="g506">
        <path
           d="m 0,0 c 7.365,1.824 14.892,5.633 20.261,-2.303 1.658,-2.451 1.983,-5.89 2.405,-8.738 0.551,-3.723 1.213,-7.408 2.035,-11.082 3.367,-15.049 9.518,-29.268 11.327,-44.654 0.223,-1.897 3.226,-1.918 3,0 -2.173,18.474 -9.913,35.625 -13.09,53.927 C 24.748,-5.986 24.123,-0.49 18.21,3.877 12.531,8.07 5.102,4.353 -0.798,2.893 -2.675,2.428 -1.878,-0.467 0,0"
           style="fill:#468966;fill-opacity:1;fill-rule:nonzero;stroke:none"
           id="path504" />
      </g>
      <g
         transform="translate(226.5254,126.0293)"
         id="g510">
        <path
           d="m 0,0 c -0.303,-4.082 -5.743,-6.715 -9.017,-8.057 -1.749,-0.718 -3.972,-1.369 -5.853,-1.093 -2.195,0.322 -2.828,3.509 -3.319,5.218 -0.533,1.858 -3.427,1.067 -2.892,-0.797 1.748,-6.089 4.677,-8.283 10.948,-6.845 C -4.801,-10.351 2.554,-6.019 3,0 3.143,1.93 0.142,1.916 0,0"
           style="fill:#468966;fill-opacity:1;fill-rule:nonzero;stroke:none"
           id="path508" />
      </g>
      <g
         transform="translate(219.8135,165.7617)"
         id="g514">
        <path
           d="M 0,0 C 3.923,0.771 14.04,4.887 16.834,0.539 20.443,-5.08 4.511,-7.625 1.7,-8.688 -0.092,-9.363 0.685,-12.264 2.498,-11.58 8.215,-9.42 22.439,-8.281 19.817,1.148 17.67,8.871 4.099,3.855 -0.798,2.893 -2.695,2.52 -1.89,-0.371 0,0"
           style="fill:#468966;fill-opacity:1;fill-rule:nonzero;stroke:none"
           id="path512" />
      </g>
      <g
         transform="translate(236.5313,168.293)"
         id="g518">
        <path
           d="m 0,0 c 11.899,4.307 23.305,9.885 34.786,15.176 10.403,4.793 21.252,10.314 32.648,12.265 1.847,0.315 3.796,0.381 5.627,-0.054 2.13,-0.506 4.316,-2.032 4.562,-4.43 0.321,-3.121 -3.871,-5.49 -5.998,-6.789 C 64.503,11.818 56.621,8.807 48.733,6.178 32.827,0.877 16.363,-2.008 0.102,-5.932 c -1.88,-0.455 -1.082,-3.347 0.797,-2.892 19.599,4.73 39.42,8.148 58.256,15.599 6.955,2.75 15.776,6.028 20.287,12.299 3.251,4.52 -0.517,9.594 -5.034,11.031 -4,1.272 -8.414,0.252 -12.348,-0.777 C 55.703,27.662 49.593,25.006 43.576,22.402 28.753,15.988 14.408,8.397 -0.798,2.893 -2.603,2.238 -1.824,-0.66 0,0"
           style="fill:#468966;fill-opacity:1;fill-rule:nonzero;stroke:none"
           id="path516" />
      </g>
      <g
         transform="translate(270.3877,184.4102)"
         id="g522">
        <path
           d="m 0,0 c 2.58,-4.111 3.621,-8.764 4.31,-13.512 0.276,-1.91 3.166,-1.095 2.892,0.797 C 6.478,-7.713 5.304,-2.809 2.591,1.514 1.564,3.148 -1.031,1.645 0,0"
           style="fill:#468966;fill-opacity:1;fill-rule:nonzero;stroke:none"
           id="path520" />
      </g>
      <g
         transform="translate(279.5342,188.2168)"
         id="g526">
        <path
           d="m 0,0 c 2.3,-4.861 3.824,-9.85 4.092,-15.242 0.095,-1.924 3.095,-1.934 3,0 C 6.798,-9.313 5.118,-3.828 2.591,1.514 1.764,3.262 -0.822,1.738 0,0"
           style="fill:#468966;fill-opacity:1;fill-rule:nonzero;stroke:none"
           id="path524" />
      </g>
      <g
         transform="translate(288.0323,191.3555)"
         id="g530">
        <path
           d="m 0,0 c 3.468,-3.316 5.503,-9.49 5.624,-14.217 0.05,-1.929 3.05,-1.935 3,0 C 8.483,-8.723 6.162,-1.742 2.121,2.121 0.724,3.459 -1.4,1.34 0,0"
           style="fill:#468966;fill-opacity:1;fill-rule:nonzero;stroke:none"
           id="path528" />
      </g>
      <g
         transform="translate(299.4034,195.0742)"
         id="g534">
        <path
           d="m 0,0 c 3.953,-2.506 4.988,-7.707 5.172,-12.063 0.082,-1.925 3.082,-1.935 3,0 C 7.94,-6.568 6.436,-0.529 1.515,2.59 -0.125,3.629 -1.629,1.033 0,0"
           style="fill:#468966;fill-opacity:1;fill-rule:nonzero;stroke:none"
           id="path532" />
      </g>
      <g
         transform="translate(306.1368,260.8008)"
         id="g538">
        <path
           d="m 0,0 c -3.164,-4.68 -6.971,-8.813 -11.05,-12.705 -2.36,-2.252 -1.315,-1.701 -3.939,-2.426 -8.708,-2.41 -17.538,-4.656 -26.49,-5.941 -1.909,-0.274 -1.094,-3.164 0.797,-2.893 9.356,1.342 18.572,3.731 27.666,6.268 1.756,0.49 2.75,1.621 4.088,2.871 4.296,4.017 8.223,8.437 11.519,13.312 C 3.677,0.094 1.077,1.594 0,0"
           style="fill:#ffb03b;fill-opacity:1;fill-rule:nonzero;stroke:none"
           id="path536" />
      </g>
      <g
         transform="translate(306.7139,261.9688)"
         id="g542">
        <path
           d="m 0,0 c -11.945,-1.418 -23.489,-4.602 -35.119,-7.561 -1.874,-0.476 -1.078,-3.371 0.798,-2.892 11.358,2.89 22.653,6.068 34.321,7.453 1.897,0.225 1.919,3.226 0,3"
           style="fill:#ffb03b;fill-opacity:1;fill-rule:nonzero;stroke:none"
           id="path540" />
      </g>
      <g
         transform="translate(266.2823,238.3633)"
         id="g546">
        <path
           d="M 0,0 C 0.794,5.078 4.15,9.455 6.675,13.805 7.647,15.482 5.055,16.992 4.084,15.318 1.436,10.754 -2.059,6.133 -2.893,0.797 -3.189,-1.096 -0.298,-1.908 0,0"
           style="fill:#ffb03b;fill-opacity:1;fill-rule:nonzero;stroke:none"
           id="path544" />
      </g>
      <g
         transform="translate(294.3526,258.6035)"
         id="g550">
        <path
           d="m 0,0 c -0.134,-5.494 -7.58,-7.523 -9.944,-2.322 -0.8,1.76 -3.385,0.234 -2.591,-1.514 C -8.872,-11.895 2.799,-8.246 3,0 3.048,1.936 0.047,1.932 0,0"
           style="fill:#ffb03b;fill-opacity:1;fill-rule:nonzero;stroke:none"
           id="path548" />
      </g>
      <g
         transform="translate(263.836,239.8848)"
         id="g554">
        <path
           d="m 0,0 c -1.167,-2.49 -2.22,-5.512 -4.527,-7.19 -2.668,-1.939 -7.263,-0.904 -10.34,-1.099 -6.537,-0.418 -12.762,-3.016 -18.694,-5.6 -15.088,-6.568 -30.779,-12.416 -47.591,-10.195 -1.913,0.254 -1.889,-2.75 0,-3 17.229,-2.275 33.666,3.746 49.105,10.605 4.212,1.872 8.487,3.471 12.976,4.534 4.033,0.953 7.973,0.261 11.983,0.857 5.562,0.828 7.471,4.863 9.679,9.574 C 3.406,0.226 0.82,1.752 0,0"
           style="fill:#ffb03b;fill-opacity:1;fill-rule:nonzero;stroke:none"
           id="path552" />
      </g>
      <g
         transform="translate(308.5996,261.959)"
         id="g558">
        <path
           d="m 0,0 c -2.786,5.314 -8.365,9.416 -13.556,12.186 -1.706,0.91 -3.221,-1.68 -1.514,-2.59 4.767,-2.543 9.919,-6.223 12.479,-11.11 C -1.691,-3.227 0.898,-1.711 0,0"
           style="fill:#ffb03b;fill-opacity:1;fill-rule:nonzero;stroke:none"
           id="path556" />
      </g>
      <g
         transform="translate(293.5879,274.6094)"
         id="g562">
        <path
           d="m 0,0 c -10.146,0.732 -19.805,-2.68 -29.266,-5.91 -1.82,-0.621 -1.038,-3.52 0.798,-2.893 C -19.259,-5.66 -9.882,-2.287 0,-3 1.931,-3.141 1.918,-0.139 0,0"
           style="fill:#ffb03b;fill-opacity:1;fill-rule:nonzero;stroke:none"
           id="path560" />
      </g>
      <g
         transform="translate(262.1739,267.2012)"
         id="g566">
        <path
           d="m 0,0 c -4.745,-7.045 -9.94,-13.645 -16.868,-18.664 -7.74,-5.607 -17.112,-7.773 -26.209,-10.104 -13.32,-3.412 -33.07,-8.808 -37.86,-23.734 -0.592,-1.846 2.305,-2.631 2.893,-0.797 2.857,8.904 13.359,14.256 21.465,17.391 8.244,3.191 17.05,4.767 25.508,7.275 14.992,4.443 25.118,14.436 33.662,27.119 C 3.675,0.096 1.074,1.596 0,0"
           style="fill:#ffb03b;fill-opacity:1;fill-rule:nonzero;stroke:none"
           id="path564" />
      </g>
      <g
         transform="translate(247.9825,250.7168)"
         id="g570">
        <path
           d="m 0,0 c -12.29,4.049 -24.466,2.562 -36.952,0.357 -11.065,-1.953 -24.605,-5.189 -33.171,4.524 -1.282,1.453 -3.396,-0.678 -2.121,-2.121 6.411,-7.27 16.414,-8.369 25.475,-7.049 15.498,2.26 30.552,6.475 45.971,1.396 C 1.045,-3.5 1.829,-0.602 0,0"
           style="fill:#ffb03b;fill-opacity:1;fill-rule:nonzero;stroke:none"
           id="path568" />
      </g>
      <g
         transform="translate(260.5264,263.0469)"
         id="g574">
        <path
           d="m 0,0 c -2.582,5.381 -6.137,8.242 -12.207,7.035 -3.326,-0.662 -6.489,-2.15 -9.773,-3.004 -5.258,-1.365 -10.921,-1.17 -16.305,-1.015 -10.002,0.287 -19.754,0.802 -29.363,-2.485 -5.818,-1.992 -11.468,-4.761 -16.836,-7.746 -1.692,-0.939 -0.179,-3.531 1.513,-2.59 4.347,2.416 8.859,4.563 13.463,6.44 8.329,3.394 16.878,3.865 25.779,3.584 7.952,-0.252 15.963,-0.789 23.748,1.232 2.901,0.754 5.665,1.951 8.572,2.692 C -6.822,5.31 -4.42,2.299 -2.591,-1.514 -1.754,-3.258 0.832,-1.736 0,0"
           style="fill:#ffb03b;fill-opacity:1;fill-rule:nonzero;stroke:none"
           id="path572" />
      </g>
      <g
         transform="translate(296.5635,259.5918)"
         id="g578">
        <path
           d="m 0,0 c -1.268,4.002 -4.621,7.766 -9.232,6.852 -4.842,-0.959 -6.832,-5.825 -6.454,-10.329 0.161,-1.914 3.162,-1.929 3,0 -0.239,2.856 0.404,6.164 3.438,7.245 3.198,1.136 5.511,-1.899 6.355,-4.565 C -2.311,-2.635 0.586,-1.85 0,0"
           style="fill:#ffb03b;fill-opacity:1;fill-rule:nonzero;stroke:none"
           id="path576" />
      </g>
      <g
         transform="translate(244.0576,231.0488)"
         id="g582">
        <path
           d="m 0,0 c -2.905,2.5 -4.686,6.637 -5.18,10.393 -0.248,1.89 -3.251,1.914 -3,0 C -7.585,5.867 -5.656,0.92 -2.121,-2.121 -0.663,-3.377 1.47,-1.264 0,0"
           style="fill:#ffb03b;fill-opacity:1;fill-rule:nonzero;stroke:none"
           id="path580" />
      </g>
      <g
         transform="translate(237.3643,252.0762)"
         id="g586">
        <path
           d="M 0,0 C -1.254,3.813 0.638,7.98 1.303,11.754 1.636,13.645 -1.255,14.453 -1.59,12.551 -2.354,8.211 -4.34,3.604 -2.893,-0.797 -2.291,-2.625 0.606,-1.842 0,0"
           style="fill:#ffb03b;fill-opacity:1;fill-rule:nonzero;stroke:none"
           id="path584" />
      </g>
      <g
         transform="translate(230.2608,252.6367)"
         id="g590">
        <path
           d="m 0,0 c -1.235,3.336 -0.2,6.947 0.213,10.35 0.232,1.918 -2.771,1.896 -3,0 C -3.236,6.65 -4.236,2.832 -2.893,-0.797 -2.228,-2.596 0.673,-1.818 0,0"
           style="fill:#ffb03b;fill-opacity:1;fill-rule:nonzero;stroke:none"
           id="path588" />
      </g>
      <g
         transform="translate(219.3438,251.3672)"
         id="g594">
        <path
           d="m 0,0 c -0.353,3.223 -1.278,7.65 0.213,10.691 0.849,1.729 -1.738,3.25 -2.591,1.514 C -4.182,8.529 -3.429,3.912 -3,0 -2.792,-1.902 0.21,-1.922 0,0"
           style="fill:#ffb03b;fill-opacity:1;fill-rule:nonzero;stroke:none"
           id="path592" />
      </g>
      <g
         transform="translate(209.2715,250.3692)"
         id="g598">
        <path
           d="m 0,0 c -2.403,3.346 -0.633,9.449 0.609,12.979 0.645,1.83 -2.255,2.609 -2.892,0.796 C -3.791,9.496 -5.494,2.529 -2.591,-1.514 -1.473,-3.07 1.131,-1.574 0,0"
           style="fill:#ffb03b;fill-opacity:1;fill-rule:nonzero;stroke:none"
           id="path596" />
      </g>
      <g
         transform="translate(195.8741,248.1836)"
         id="g602">
        <path
           d="m 0,0 c -0.702,4.477 -0.038,8.963 0.789,13.375 0.356,1.891 -2.536,2.697 -2.893,0.797 C -3.038,9.193 -3.685,4.248 -2.893,-0.797 -2.594,-2.703 0.297,-1.891 0,0"
           style="fill:#ffb03b;fill-opacity:1;fill-rule:nonzero;stroke:none"
           id="path600" />
      </g>
      <g
         transform="translate(234.4825,226.6426)"
         id="g606">
        <path
           d="m 0,0 c -3,3.158 -5.063,7.48 -6.006,11.713 -0.42,1.889 -3.312,1.088 -2.893,-0.797 C -7.845,6.185 -5.467,1.4 -2.121,-2.121 -0.787,-3.527 1.331,-1.402 0,0"
           style="fill:#ffb03b;fill-opacity:1;fill-rule:nonzero;stroke:none"
           id="path604" />
      </g>
      <g
         transform="translate(223.2129,222.3848)"
         id="g610">
        <path
           d="m 0,0 c -3.32,3.508 -4.588,8.746 -4.845,13.449 -0.104,1.924 -3.105,1.934 -3,0 0.303,-5.527 1.83,-11.457 5.724,-15.57 C -0.789,-3.527 1.329,-1.402 0,0"
           style="fill:#ffb03b;fill-opacity:1;fill-rule:nonzero;stroke:none"
           id="path608" />
      </g>
      <g
         transform="translate(211.209,218.7188)"
         id="g614">
        <path
           d="m 0,0 c -3.231,3.383 -4.553,8.209 -5.103,12.748 -0.23,1.896 -3.233,1.918 -3,0 C -7.452,7.385 -5.943,1.879 -2.121,-2.121 -0.783,-3.524 1.335,-1.399 0,0"
           style="fill:#ffb03b;fill-opacity:1;fill-rule:nonzero;stroke:none"
           id="path612" />
      </g>
      <g
         transform="translate(199.6612,215.7774)"
         id="g618">
        <path
           d="m 0,0 c -1.944,3.658 -3.063,7.605 -4.179,11.574 -0.523,1.86 -3.418,1.068 -2.892,-0.797 1.186,-4.22 2.415,-8.404 4.48,-12.291 C -1.683,-3.223 0.907,-1.707 0,0"
           style="fill:#ffb03b;fill-opacity:1;fill-rule:nonzero;stroke:none"
           id="path616" />
      </g>
      <g
         transform="translate(273.1963,145.3555)"
         id="g622">
        <path
           d="m 0,0 c -7.645,-1.338 -15.355,-3.568 -21.442,-8.574 -1.497,-1.231 0.639,-3.34 2.121,-2.121 5.649,4.646 13.049,6.564 20.119,7.802 C 2.701,-2.559 1.892,0.332 0,0"
           style="fill:#8e2800;fill-opacity:1;fill-rule:nonzero;stroke:none"
           id="path620" />
      </g>
      <g
         transform="translate(251.0743,136.2559)"
         id="g626">
        <path
           d="m 0,0 c -6.402,-6.457 -2.946,-17.781 -0.109,-25.068 2.873,-7.379 7.844,-17.498 15.716,-20.653 1.798,-0.72 2.571,2.182 0.798,2.893 C 9.639,-40.117 5.35,-30.506 2.783,-24.27 0.298,-18.227 -3.291,-7.58 2.121,-2.121 3.484,-0.746 1.363,1.375 0,0"
           style="fill:#8e2800;fill-opacity:1;fill-rule:nonzero;stroke:none"
           id="path624" />
      </g>
      <g
         transform="translate(291.9727,105.7696)"
         id="g630">
        <path
           d="m 0,0 c -4.985,-5.609 -16.141,-14.365 -24.191,-12.381 -1.879,0.463 -2.676,-2.43 -0.798,-2.892 9.329,-2.301 21.287,6.599 27.11,13.152 C 3.401,-0.682 1.287,1.449 0,0"
           style="fill:#8e2800;fill-opacity:1;fill-rule:nonzero;stroke:none"
           id="path628" />
      </g>
      <g
         transform="translate(279.0196,131.1504)"
         id="g634">
        <path
           d="m 0,0 c -5.171,-1.225 -11.615,-1.725 -15.929,-5.154 -4.8,-3.819 -4.409,-9.707 -2.654,-15.073 1.696,-5.187 6.351,-10.994 12.172,-11.523 7.029,-0.639 13.397,5.354 19.002,8.848 1.637,1.019 0.132,3.617 -1.515,2.59 -4.072,-2.54 -8.059,-5.215 -12.242,-7.571 -6.547,-3.689 -12.328,3.018 -14.524,8.453 -2.009,4.973 -1.71,10.2 3.261,12.93 3.913,2.15 8.94,2.592 13.227,3.607 C 2.68,-2.447 1.882,0.445 0,0"
           style="fill:#8e2800;fill-opacity:1;fill-rule:nonzero;stroke:none"
           id="path632" />
      </g>
      <g
         transform="translate(272.4698,143.2852)"
         id="g638">
        <path
           d="m 0,0 c 2.914,-6.801 6.488,-13.352 9.819,-19.951 3.084,-6.113 7.233,-12.467 9.298,-19.024 0.579,-1.839 3.476,-1.054 2.893,0.797 -1.93,6.125 -5.707,12.02 -8.584,17.727 C 9.76,-13.182 5.799,-5.975 2.591,1.514 1.831,3.287 -0.753,1.758 0,0"
           style="fill:#8e2800;fill-opacity:1;fill-rule:nonzero;stroke:none"
           id="path636" />
      </g>
      <g
         transform="translate(392.1065,158.9336)"
         id="g642">
        <path
           d="m 0,0 c -32.776,-17.852 -66.148,-34.631 -99.202,-51.957 -1.714,-0.898 -0.197,-3.488 1.514,-2.59 33.054,17.326 66.426,34.106 99.202,51.957 C 3.213,-1.666 1.699,0.926 0,0"
           style="fill:#8e2800;fill-opacity:1;fill-rule:nonzero;stroke:none"
           id="path640" />
      </g>
      <g
         transform="translate(394.4981,158.6582)"
         id="g646">
        <path
           d="m 0,0 c -4.136,7.615 -7.482,15.648 -11.701,23.221 -0.942,1.689 -3.533,0.177 -2.591,-1.514 C -10.073,14.135 -6.726,6.102 -2.591,-1.514 -1.668,-3.215 0.923,-1.701 0,0"
           style="fill:#8e2800;fill-opacity:1;fill-rule:nonzero;stroke:none"
           id="path644" />
      </g>
      <g
         transform="translate(380.2061,181.8789)"
         id="g650">
        <path
           d="m 0,0 c -1.235,-2.918 -2.632,-5.764 -3.867,-8.682 0.785,0.102 1.57,0.203 2.355,0.305 -1.907,2.459 -3.837,4.813 -6.148,6.906 -0.768,0.698 -2.288,0.516 -2.507,-0.662 -0.662,-3.553 -1.514,-7.051 -2.425,-10.547 0.735,0.299 1.469,0.598 2.203,0.897 -3.149,2.336 -6.177,4.828 -9.327,7.162 -0.61,0.453 -1.741,0.152 -2.053,-0.537 -1.674,-3.709 -2.463,-7.711 -4.214,-11.389 0.785,0.102 1.57,0.203 2.355,0.303 -2.327,2.414 -5.05,4.363 -7.391,6.762 -0.835,0.857 -2.137,0.365 -2.506,-0.663 -1.299,-3.617 -2.209,-7.259 -2.649,-11.078 0.752,0.432 1.505,0.864 2.257,1.295 -3.284,2.11 -6.409,4.428 -9.914,6.168 -1.727,0.858 -3.247,-1.73 -1.514,-2.59 3.504,-1.742 6.63,-4.058 9.914,-6.168 1.052,-0.675 2.136,0.245 2.257,1.295 0.408,3.549 1.338,6.928 2.541,10.282 -0.835,-0.221 -1.671,-0.442 -2.507,-0.663 2.34,-2.398 5.064,-4.347 7.391,-6.761 0.631,-0.655 1.939,-0.57 2.356,0.305 1.755,3.681 2.54,7.677 4.215,11.388 -0.684,-0.18 -1.368,-0.359 -2.052,-0.539 3.149,-2.336 6.178,-4.826 9.328,-7.162 0.785,-0.584 1.977,0.031 2.203,0.896 0.911,3.497 1.763,6.995 2.425,10.547 -0.835,-0.22 -1.671,-0.441 -2.507,-0.662 2.31,-2.094 4.241,-4.447 6.148,-6.906 0.552,-0.713 2.004,-0.529 2.357,0.303 1.235,2.918 2.63,5.763 3.867,8.681 C 3.336,0.246 0.753,1.775 0,0"
           style="fill:#8e2800;fill-opacity:1;fill-rule:nonzero;stroke:none"
           id="path648" />
      </g>
      <g
         transform="translate(334.1534,167.4492)"
         id="g654">
        <path
           d="m 0,0 c -1.638,-3.609 -1.806,-7.367 -2.614,-11.207 0.734,0.299 1.468,0.598 2.203,0.896 -3.779,1.979 -6.791,5.04 -10.571,7.016 -0.695,0.363 -1.664,0.213 -2.052,-0.537 -1.772,-3.424 -1.444,-7.398 -3.366,-10.732 0.684,0.179 1.369,0.359 2.052,0.537 -3.608,1.615 -6.739,3.961 -10.083,6.037 -1.649,1.023 -3.154,-1.573 -1.514,-2.59 3.344,-2.078 6.474,-4.422 10.084,-6.037 0.741,-0.332 1.611,-0.227 2.051,0.539 1.948,3.375 1.593,7.305 3.367,10.732 -0.684,-0.179 -1.369,-0.359 -2.052,-0.539 3.779,-1.976 6.791,-5.039 10.57,-7.015 0.811,-0.424 1.994,-0.094 2.203,0.896 0.743,3.52 0.806,7.168 2.313,10.49 C 3.383,0.234 0.798,1.76 0,0"
           style="fill:#8e2800;fill-opacity:1;fill-rule:nonzero;stroke:none"
           id="path652" />
      </g>
      <g
         transform="translate(307.5186,158.5625)"
         id="g658">
        <path
           d="m 0,0 c -1.354,-3.559 -3.013,-6.959 -3.969,-10.656 0.735,0.299 1.469,0.597 2.204,0.896 -2.853,1.963 -5.631,4.022 -8.579,5.844 -0.716,0.441 -1.622,0.137 -2.052,-0.539 -2.159,-3.389 -1.872,-7.41 -3.406,-11.033 0.685,0.179 1.369,0.359 2.053,0.539 -3.525,1.871 -6.217,4.802 -9.972,6.279 -1.008,0.397 -1.784,-0.586 -1.898,-1.447 -0.39,-2.934 0.305,-5.813 -0.203,-8.744 0.734,0.299 1.469,0.597 2.204,0.896 -3.079,1.674 -6.223,3.215 -9.378,4.738 -1.733,0.838 -3.256,-1.748 -1.514,-2.589 3.155,-1.524 6.299,-3.065 9.377,-4.739 0.783,-0.427 2.031,-0.095 2.203,0.897 0.557,3.203 -0.115,6.338 0.311,9.541 -0.633,-0.483 -1.266,-0.963 -1.9,-1.446 3.469,-1.365 5.991,-4.244 9.256,-5.976 0.649,-0.346 1.724,-0.236 2.052,0.537 1.507,3.559 1.315,7.75 3.405,11.033 -0.684,-0.179 -1.368,-0.359 -2.052,-0.537 2.948,-1.822 5.725,-3.881 8.579,-5.844 0.8,-0.548 1.973,0.008 2.203,0.897 0.955,3.691 2.616,7.103 3.969,10.656 C 3.583,1.014 0.682,1.789 0,0"
           style="fill:#8e2800;fill-opacity:1;fill-rule:nonzero;stroke:none"
           id="path656" />
      </g>
      <g
         transform="translate(18.5235,302.8731)"
         id="g662">
        <path
           d="m 0,0 c -5.859,4.687 -15.183,15.375 -13.617,23.517 0.365,1.901 -2.566,2.547 -2.93,0.647 C -18.361,14.728 -8.854,3.248 -2.009,-2.227 -0.503,-3.432 1.514,-1.211 0,0"
           style="fill:#b64926;fill-opacity:1;fill-rule:nonzero;stroke:none"
           id="path660" />
      </g>
      <g
         transform="translate(54.9776,324.2949)"
         id="g666">
        <path
           d="m 0,0 c -6.64,-3.262 -12.997,-7.172 -19.415,-10.84 -5.944,-3.396 -12.075,-7.869 -18.517,-10.271 -1.805,-0.674 -0.872,-3.526 0.947,-2.848 6.017,2.244 11.709,6.322 17.257,9.49 7.07,4.039 14.062,8.367 21.374,11.961 C 3.378,-1.658 1.717,0.844 0,0"
           style="fill:#b64926;fill-opacity:1;fill-rule:nonzero;stroke:none"
           id="path664" />
      </g>
      <g
         transform="translate(76.8067,205.6309)"
         id="g670">
        <path
           d="m 0,0 c -19.525,31.807 -38.013,64.264 -57.029,96.375 -0.987,1.664 -3.494,0.016 -2.508,-1.646 C -40.521,62.617 -22.034,30.16 -2.508,-1.646 -1.496,-3.295 1.013,-1.648 0,0"
           style="fill:#b64926;fill-opacity:1;fill-rule:nonzero;stroke:none"
           id="path668" />
      </g>
      <g
         transform="translate(76.6553,203.2285)"
         id="g674">
        <path
           d="m 0,0 c 7.392,4.523 15.24,8.283 22.583,12.887 1.64,1.029 -0.006,3.539 -1.646,2.509 C 13.594,10.791 5.746,7.031 -1.645,2.508 -3.297,1.498 -1.65,-1.01 0,0"
           style="fill:#b64926;fill-opacity:1;fill-rule:nonzero;stroke:none"
           id="path672" />
      </g>
      <g
         transform="translate(99.1045,218.7031)"
         id="g678">
        <path
           d="m 0,0 c -2.979,1.084 -5.892,2.33 -8.87,3.414 0.142,-0.781 0.283,-1.559 0.426,-2.338 2.356,2.032 4.607,4.082 6.579,6.498 0.655,0.803 0.395,2.313 -0.791,2.469 -3.582,0.477 -7.12,1.147 -10.659,1.875 0.335,-0.717 0.672,-1.435 1.009,-2.152 2.169,3.265 4.501,6.418 6.67,9.685 0.419,0.633 0.062,1.746 -0.643,2.022 -3.791,1.48 -7.829,2.06 -11.593,3.619 0.142,-0.78 0.284,-1.559 0.426,-2.338 2.29,2.449 4.094,5.269 6.368,7.732 0.813,0.879 0.255,2.155 -0.791,2.469 -3.679,1.11 -7.364,1.83 -11.199,2.072 0.469,-0.73 0.939,-1.459 1.41,-2.187 1.936,3.389 4.088,6.629 5.644,10.219 0.768,1.769 -1.895,3.154 -2.665,1.379 -1.556,-3.59 -3.709,-6.833 -5.644,-10.221 -0.62,-1.086 0.353,-2.121 1.41,-2.186 3.565,-0.224 6.987,-0.978 10.398,-2.006 -0.264,0.823 -0.528,1.647 -0.791,2.469 -2.274,-2.461 -4.079,-5.281 -6.369,-7.73 -0.62,-0.664 -0.469,-1.967 0.426,-2.338 3.769,-1.561 7.799,-2.139 11.592,-3.619 -0.215,0.673 -0.43,1.347 -0.644,2.023 -2.17,-3.268 -4.501,-6.422 -6.67,-9.687 -0.542,-0.815 0.135,-1.975 1.009,-2.155 3.539,-0.728 7.076,-1.398 10.66,-1.875 -0.264,0.824 -0.527,1.647 -0.791,2.469 -1.972,-2.416 -4.222,-4.465 -6.58,-6.498 -0.682,-0.588 -0.424,-2.027 0.426,-2.336 2.977,-1.082 5.892,-2.33 8.869,-3.414 C 0.418,-3.318 1.812,-0.658 0,0"
           style="fill:#b64926;fill-opacity:1;fill-rule:nonzero;stroke:none"
           id="path676" />
      </g>
      <g
         transform="translate(82.3076,263.9473)"
         id="g682">
        <path
           d="m 0,0 c -3.69,1.447 -7.45,1.42 -11.328,2.029 0.337,-0.718 0.674,-1.435 1.01,-2.154 1.779,3.877 4.68,7.043 6.459,10.92 0.327,0.713 0.126,1.674 -0.645,2.021 -3.511,1.594 -7.463,1.059 -10.892,2.807 0.215,-0.674 0.43,-1.348 0.644,-2.021 1.426,3.687 3.605,6.933 5.505,10.382 0.937,1.7 -1.733,3.067 -2.664,1.377 -1.902,-3.447 -4.08,-6.695 -5.506,-10.382 -0.293,-0.758 -0.143,-1.622 0.644,-2.022 3.472,-1.769 7.377,-1.211 10.892,-2.807 -0.215,0.676 -0.43,1.35 -0.643,2.024 -1.779,-3.877 -4.681,-7.045 -6.458,-10.92 -0.383,-0.832 0.009,-1.998 1.009,-2.154 3.553,-0.559 7.2,-0.434 10.596,-1.766 C 0.408,-3.367 1.799,-0.707 0,0"
           style="fill:#b64926;fill-opacity:1;fill-rule:nonzero;stroke:none"
           id="path680" />
      </g>
      <g
         transform="translate(72.0518,290.086)"
         id="g686">
        <path
           d="m 0,0 c -3.624,1.166 -7.105,2.646 -10.847,3.41 0.336,-0.717 0.673,-1.435 1.009,-2.154 1.813,2.951 3.725,5.832 5.391,8.871 0.404,0.736 0.052,1.627 -0.644,2.021 -3.497,1.979 -7.499,1.485 -11.195,2.829 0.215,-0.674 0.43,-1.348 0.643,-2.022 1.688,3.617 4.475,6.457 5.754,10.283 0.344,1.028 -0.676,1.752 -1.542,1.823 -2.951,0.236 -5.79,-0.608 -8.744,-0.252 0.337,-0.717 0.673,-1.436 1.01,-2.155 1.513,3.162 2.888,6.381 4.246,9.612 0.747,1.775 -1.915,3.16 -2.664,1.377 -1.359,-3.231 -2.734,-6.45 -4.247,-9.61 -0.386,-0.804 0.011,-2.033 1.009,-2.154 3.228,-0.389 6.325,0.443 9.546,0.185 -0.515,0.606 -1.029,1.213 -1.543,1.821 -1.183,-3.533 -3.927,-6.201 -5.489,-9.553 -0.31,-0.666 -0.147,-1.734 0.644,-2.021 3.632,-1.321 7.808,-0.911 11.194,-2.829 -0.215,0.674 -0.429,1.348 -0.643,2.022 -1.667,-3.039 -3.578,-5.918 -5.391,-8.869 -0.507,-0.828 0.109,-1.973 1.01,-2.155 3.736,-0.761 7.228,-2.244 10.847,-3.412 C 1.197,-3.525 1.822,-0.588 0,0"
           style="fill:#b64926;fill-opacity:1;fill-rule:nonzero;stroke:none"
           id="path684" />
      </g>
      <g
         transform="translate(274.5039,38.1914)"
         id="g690">
        <path
           d="m 0,0 c -7.418,-1.076 -23.981,-5.437 -22.391,-16.023 1.196,-7.952 13.536,-7.995 19.493,-7.891 4.995,0.086 9.843,1.109 14.549,2.769 4.568,1.61 12.749,5.166 14.326,10.362 C 29.381,0.426 6.205,0.895 0,0 c -1.909,-0.275 -1.094,-3.166 0.798,-2.893 5.396,0.78 10.438,-0.039 15.698,-1.298 2.133,-0.512 4.226,-1.358 5.936,-2.754 3.736,-3.049 -4.713,-7.942 -6.263,-8.854 -6.282,-3.703 -13.647,-5.121 -20.854,-5.133 -4.062,-0.005 -14.708,0.118 -14.766,6.03 -0.078,8.199 14.298,11.146 20.249,12.009 C 2.706,-2.617 1.892,0.273 0,0"
           style="fill:#468966;fill-opacity:1;fill-rule:nonzero;stroke:none"
           id="path688" />
      </g>
      <g
         transform="translate(261.3955,40.7891)"
         id="g694">
        <path
           d="m 0,0 c -6.232,-2.898 -12.577,-6.703 -14.689,-13.646 -2.25,-7.393 0.806,-18.106 2.75,-25.297 0.503,-1.866 3.398,-1.073 2.892,0.797 -1.835,6.789 -3.366,14.375 -3.126,21.427 0.251,7.387 7.84,11.408 13.687,14.129 C 3.267,-1.773 1.742,0.811 0,0"
           style="fill:#468966;fill-opacity:1;fill-rule:nonzero;stroke:none"
           id="path692" />
      </g>
      <g
         transform="translate(262.5518,38.0488)"
         id="g698">
        <path
           d="m 0,0 c 9.051,2.795 18.91,4.275 28.292,2.381 4.612,-0.93 8.95,-3.137 11.772,-6.979 3.679,-5.013 2.929,-11.859 3.537,-17.707 0.198,-1.904 3.2,-1.924 3,0 -0.655,6.299 -0.247,12.666 -3.404,18.373 C 40.869,0.275 36.552,2.85 32.166,4.428 21.873,8.131 9.352,6.025 -0.798,2.893 -2.641,2.324 -1.853,-0.572 0,0"
           style="fill:#468966;fill-opacity:1;fill-rule:nonzero;stroke:none"
           id="path696" />
      </g>
      <g
         transform="translate(249.8575,0.9883)"
         id="g702">
        <path
           d="m 0,0 c 5.389,-10.646 21.111,-10.02 31.015,-8.275 12.022,2.117 30.317,7.832 28.28,23.031 -0.253,1.889 -3.256,1.914 -3,0 C 57.298,7.27 53.258,3.451 47.074,0.131 41.866,-2.664 35.984,-4.244 30.217,-5.383 21.684,-7.066 7.225,-7.643 2.591,1.514 1.717,3.24 -0.871,1.721 0,0"
           style="fill:#468966;fill-opacity:1;fill-rule:nonzero;stroke:none"
           id="path700" />
      </g>
      <g
         transform="translate(246.4561,19.0957)"
         id="g706">
        <path
           d="m 0,0 c 3.308,-9.307 15.599,-10.814 24.059,-11.236 12.74,-0.639 26.478,1.834 37.894,7.59 1.729,0.871 0.209,3.459 -1.514,2.589 C 50.416,-6.109 38.882,-8.107 27.737,-8.295 20.229,-8.422 5.988,-7.912 2.893,0.797 2.25,2.607 -0.649,1.828 0,0"
           style="fill:#468966;fill-opacity:1;fill-rule:nonzero;stroke:none"
           id="path704" />
      </g>
      <g
         transform="translate(247.7061,10.0957)"
         id="g710">
        <path
           d="m 0,0 c 3.228,-9.064 15.241,-10.369 23.454,-10.74 11.751,-0.531 24.894,1.304 35.499,6.594 1.732,0.863 0.212,3.451 -1.514,2.589 C 48.53,-6 38.004,-7.457 28.162,-7.766 20.747,-7.998 6.001,-7.93 2.893,0.797 2.249,2.607 -0.65,1.828 0,0"
           style="fill:#468966;fill-opacity:1;fill-rule:nonzero;stroke:none"
           id="path708" />
      </g>
      <g
         transform="translate(111.7061,160.3965)"
         id="g714">
        <path
           d="m 0,0 c -6.145,-4.293 -18.982,-15.633 -12.805,-24.375 4.64,-6.564 15.684,-1.061 20.959,1.709 4.424,2.32 8.296,5.414 11.755,9.01 3.358,3.49 9.067,10.342 8.143,15.693 C 26.058,13.58 5.142,3.588 0,0 c -1.581,-1.104 0.445,-3.32 2.013,-2.227 4.47,3.122 9.342,4.657 14.608,5.893 2.135,0.502 4.385,0.686 6.54,0.207 C 27.868,2.828 22.518,-5.34 21.544,-6.85 17.595,-12.981 11.65,-17.557 5.218,-20.805 1.592,-22.635 -7.975,-27.309 -10.683,-22.051 -14.437,-14.762 -2.917,-5.67 2.013,-2.227 3.594,-1.121 1.566,1.096 0,0"
           style="fill:#fff0a5;fill-opacity:1;fill-rule:nonzero;stroke:none"
           id="path712" />
      </g>
      <g
         transform="translate(98.8282,156.8281)"
         id="g718">
        <path
           d="m 0,0 c -4.266,-5.389 -8.225,-11.639 -6.993,-18.791 1.311,-7.615 8.855,-15.812 13.822,-21.363 1.289,-1.442 3.519,0.566 2.227,2.01 -4.69,5.242 -9.466,11.33 -12.42,17.74 -3.095,6.711 1.879,13.713 5.88,18.771 C 3.716,-0.117 1.192,1.508 0,0"
           style="fill:#fff0a5;fill-opacity:1;fill-rule:nonzero;stroke:none"
           id="path716" />
      </g>
      <g
         transform="translate(101.0918,154.8985)"
         id="g722">
        <path
           d="m 0,0 c 6.83,6.564 14.974,12.316 24.207,14.84 4.538,1.24 9.404,1.219 13.651,-0.947 5.54,-2.825 7.946,-9.278 11.116,-14.229 1.032,-1.613 3.723,-0.281 2.68,1.348 -3.415,5.332 -5.911,11.203 -11.295,14.883 -3.97,2.714 -8.984,3.074 -13.611,2.513 C 15.889,17.094 5.647,9.586 -2.012,2.227 -3.402,0.891 -1.398,-1.344 0,0"
           style="fill:#fff0a5;fill-opacity:1;fill-rule:nonzero;stroke:none"
           id="path720" />
      </g>
      <g
         transform="translate(106.4014,116.086)"
         id="g726">
        <path
           d="m 0,0 c 9.597,-7.09 23.362,0.533 31.426,6.541 9.79,7.293 23.567,20.617 14.919,33.283 -1.074,1.572 -3.77,0.246 -2.681,-1.348 C 47.924,32.238 46.03,27.012 41.997,21.267 38.601,16.43 34.056,12.375 29.414,8.767 22.547,3.43 9.888,-3.58 1.634,2.517 0.078,3.666 -1.552,1.146 0,0"
           style="fill:#fff0a5;fill-opacity:1;fill-rule:nonzero;stroke:none"
           id="path724" />
      </g>
      <g
         transform="translate(95.2276,130.7363)"
         id="g730">
        <path
           d="M 0,0 C 7.137,-6.83 18.794,-2.654 26.542,0.77 38.21,5.924 49.374,14.303 56.986,24.576 58.139,26.131 55.619,27.76 54.471,26.209 47.786,17.192 38.379,10.225 28.507,5.051 21.856,1.565 8.904,-4.379 2.226,2.012 0.839,3.34 -1.401,1.34 0,0"
           style="fill:#fff0a5;fill-opacity:1;fill-rule:nonzero;stroke:none"
           id="path728" />
      </g>
      <g
         transform="translate(100.3877,123.2578)"
         id="g734">
        <path
           d="M 0,0 C 6.955,-6.648 18.274,-2.418 25.778,0.941 36.516,5.746 47.433,13.289 54.531,22.781 55.69,24.33 53.17,25.959 52.016,24.414 46.052,16.441 37.302,10.412 28.648,5.713 22.129,2.174 8.923,-4.389 2.226,2.012 0.838,3.338 -1.402,1.34 0,0"
           style="fill:#fff0a5;fill-opacity:1;fill-rule:nonzero;stroke:none"
           id="path732" />
      </g>
      <g
         transform="translate(339.7715,317.4844)"
         id="g738">
        <path
           d="m 0,0 c -2.754,-8.173 -4.831,-16.369 -5.498,-24.989 -0.683,-8.814 0.292,-17.83 1.133,-26.595 0.184,-1.927 3.144,-1.43 2.96,0.489 -0.822,8.567 -1.578,17.18 -1.11,25.791 0.452,8.315 2.663,16.357 5.308,24.208 C 3.41,0.732 0.617,1.832 0,0"
           style="fill:#b64926;fill-opacity:1;fill-rule:nonzero;stroke:none"
           id="path736" />
      </g>
      <g
         transform="translate(340.2242,318.1026)"
         id="g742">
        <path
           d="m 0,0 c -11.96,-10.579 -16.721,-27.306 -16.434,-42.862 0.161,-8.788 3.68,-17.036 6.779,-25.105 4.216,-10.973 5.926,-21.183 3.027,-32.717 -0.464,-1.852 2.324,-2.966 2.794,-1.095 2.024,8.052 2.452,15.643 0.574,23.767 -2.035,8.807 -6.327,16.899 -8.712,25.6 -4.583,16.73 0.724,38.46 13.86,50.08 C 3.333,-1.055 1.452,1.284 0,0"
           style="fill:#b64926;fill-opacity:1;fill-rule:nonzero;stroke:none"
           id="path740" />
      </g>
      <g
         transform="translate(337.9961,266.4248)"
         id="g746">
        <path
           d="m 0,0 c -8.723,2.804 -13.709,-9.553 -5.586,-13.672 3.418,-1.734 7.38,0.617 8.906,3.768 C 5.222,-5.977 3.73,-2.055 0,0 -1.694,0.933 -2.764,-1.875 -1.097,-2.793 3.341,-5.238 0.239,-12.832 -4.49,-10.879 -9.391,-8.856 -6.046,-1.202 -1.097,-2.793 0.739,-3.384 1.841,-0.593 0,0"
           style="fill:#b64926;fill-opacity:1;fill-rule:nonzero;stroke:none"
           id="path744" />
      </g>
      <g
         transform="translate(338.7705,264.5557)"
         id="g750">
        <path
           d="M 0,0 C 14.734,10.463 21.624,29.597 23.021,47.015 22.067,46.861 21.114,46.708 20.161,46.556 26.469,28.264 18.425,0.451 -0.15,-7.543 -1.927,-8.307 -0.695,-11.042 1.084,-10.277 21.283,-1.586 29.726,27.979 22.896,47.79 22.399,49.229 20.15,48.754 20.037,47.329 18.7,30.656 12.229,12.356 -1.888,2.332 -3.468,1.21 -1.571,-1.115 0,0"
           style="fill:#b64926;fill-opacity:1;fill-rule:nonzero;stroke:none"
           id="path748" />
      </g>
      <g
         transform="translate(330.4077,254.4873)"
         id="g754">
        <path
           d="m 0,0 c -10.954,-5.766 -20.586,-19.319 -17.279,-32.09 0.48,-1.855 3.447,-1.386 2.96,0.49 -2.961,11.433 5.713,23.686 15.554,28.866 C 2.937,-1.837 1.717,0.905 0,0"
           style="fill:#b64926;fill-opacity:1;fill-rule:nonzero;stroke:none"
           id="path752" />
      </g>
      <g
         transform="translate(327.607,261.6992)"
         id="g758">
        <path
           d="m 0,0 c -12.895,-7.234 -21.005,-21.192 -23.532,-35.501 -0.337,-1.906 2.649,-2.207 2.984,-0.313 2.328,13.179 9.878,26.401 21.783,33.08 C 2.907,-1.797 1.692,0.949 0,0"
           style="fill:#b64926;fill-opacity:1;fill-rule:nonzero;stroke:none"
           id="path756" />
      </g>
      <g
         transform="translate(304.9502,227.4082)"
         id="g762">
        <path
           d="m 0,0 c -7.794,-3.298 -8.188,-15.006 -0.556,-18.704 9.133,-4.427 17.512,6.921 11.582,14.592 C 9.842,-2.577 7.513,-4.469 8.695,-6 c 4.614,-5.969 -2.689,-13.24 -8.94,-9.491 -4.859,2.914 -3.22,10.767 1.479,12.757 C 3.015,-1.978 1.782,0.755 0,0"
           style="fill:#b64926;fill-opacity:1;fill-rule:nonzero;stroke:none"
           id="path760" />
      </g>
      <g
         transform="translate(339.1426,255.5772)"
         id="g766">
        <path
           d="m 0,0 c 3.86,-13.304 6.358,-26.73 0.898,-39.991 -0.738,-1.792 2.059,-2.88 2.793,-1.096 5.664,13.752 3.291,27.72 -0.73,41.576 C 2.43,2.322 -0.539,1.859 0,0"
           style="fill:#b64926;fill-opacity:1;fill-rule:nonzero;stroke:none"
           id="path764" />
      </g>
      <g
         transform="translate(335.1504,218.3623)"
         id="g770">
        <path
           d="m 0,0 c -4.311,0.555 -7.668,-2.464 -8.966,-6.387 -1.597,-4.826 0.906,-9.12 5.034,-11.555 4.366,-2.573 9.632,-1.878 12.898,2.008 3.57,4.251 2.405,10.583 -1.79,13.818 -1.536,1.187 -3.305,-1.236 -1.777,-2.417 3.376,-2.605 3.494,-7.35 0.503,-10.34 -2.71,-2.71 -6.751,-1.612 -9.528,0.286 -4.604,3.148 -3.024,12.418 3.312,11.604 C 1.606,-3.23 1.917,-0.246 0,0"
           style="fill:#b64926;fill-opacity:1;fill-rule:nonzero;stroke:none"
           id="path768" />
      </g>
      <g
         transform="translate(310.2842,222.2608)"
         id="g774">
        <path
           d="m 0,0 c -1.972,1.022 -4.29,0.175 -5.472,-1.619 -1.371,-2.079 -0.738,-4.595 1.205,-6.034 1.82,-1.351 4.195,-0.719 5.507,0.981 1.461,1.891 1.011,4.61 -0.623,6.221 -0.582,0.571 -1.42,0.779 -2.109,0.222 -0.582,-0.471 -0.806,-1.536 -0.222,-2.11 0.715,-0.706 1.059,-1.437 0.648,-2.39 C -1.34,-5.361 -1.967,-5.566 -2.491,-5.236 -4.077,-4.234 -2.7,-1.96 -1.096,-2.793 0.624,-3.685 1.696,-0.88 0,0"
           style="fill:#b64926;fill-opacity:1;fill-rule:nonzero;stroke:none"
           id="path772" />
      </g>
      <g
         transform="translate(332.3091,211.1856)"
         id="g778">
        <path
           d="m 0,0 c -1.329,-2.013 -0.807,-4.305 0.957,-5.844 1.82,-1.59 4.47,-1.138 6.021,0.543 1.565,1.697 1.288,4.175 -0.385,5.675 C 4.756,2.018 2.095,1.784 0.266,0.276 -1.228,-0.953 0.659,-3.286 2.153,-2.056 2.798,-1.524 3.607,-1.225 4.366,-1.69 5.014,-2.084 5.232,-2.625 4.859,-3.175 3.851,-4.663 1.503,-3.161 2.418,-1.777 3.483,-0.167 1.067,1.613 0,0"
           style="fill:#b64926;fill-opacity:1;fill-rule:nonzero;stroke:none"
           id="path776" />
      </g>
      <g
         transform="translate(135.9268,339.8965)"
         id="g782">
        <path
           d="m 0,0 c -5.785,-9.352 -8.686,-20.666 -12.87,-30.77 -3.737,-9.027 -9.785,-25.543 -21.184,-27.003 -9.294,-1.194 -10.519,11.017 -7.341,16.978 2.861,5.369 7.079,10.09 10.983,14.709 8.212,9.717 17.845,18.828 24.591,29.68 1.024,1.646 -1.607,3.092 -2.622,1.457 -8.046,-12.942 -19.931,-23.506 -29.359,-35.428 -3.116,-3.939 -6.928,-8.445 -8.023,-13.482 -1.276,-5.871 0.887,-14.719 7.554,-16.422 12.523,-3.203 20.339,11.543 24.777,20.736 5.941,12.309 8.915,26.445 16.116,38.088 C 3.644,0.193 1.013,1.639 0,0"
           style="fill:#ffb03b;fill-opacity:1;fill-rule:nonzero;stroke:none"
           id="path780" />
      </g>
      <g
         transform="translate(102.3575,287.3125)"
         id="g786">
        <path
           d="m 0,0 c 7.054,-1.424 10.335,10.854 3.628,13.065 -3.967,1.31 -7.375,-2.657 -8.284,-6.036 -1.111,-4.123 1.449,-7.939 5.883,-7.408 1.904,0.229 1.832,3.231 -0.091,3 C -1.444,2.313 -2.26,3.963 -1.741,6.322 -1.29,8.373 0.581,10.703 2.921,10.15 5.808,9.469 4.041,2.242 0.709,2.914 -1.183,3.297 -1.898,0.381 0,0"
           style="fill:#ffb03b;fill-opacity:1;fill-rule:nonzero;stroke:none"
           id="path784" />
      </g>
      <g
         transform="translate(227.168,346.7949)"
         id="g790">
        <path
           d="m 0,0 c -2.048,-20.977 -6.977,-42.523 -18.595,-60.396 -0.559,-0.842 -1.135,-1.674 -1.729,-2.493 -0.788,-0.812 -1.576,-1.625 -2.364,-2.437 -4.065,0.873 -5.382,2.615 -3.953,5.223 0.935,2.964 1.963,5.898 3.002,8.828 2.087,5.884 4.376,11.697 6.67,17.504 3.716,9.408 8.131,19.083 5.999,29.392 -0.392,1.895 -3.315,1.223 -2.924,-0.67 1.534,-7.416 -0.772,-14.258 -3.325,-21.148 -2.784,-7.51 -5.887,-14.897 -8.646,-22.416 -1.731,-4.719 -5.706,-11.643 -4.126,-16.74 0.92,-2.967 4.935,-4.21 7.616,-3.081 4.599,1.934 7.175,7.588 9.521,11.688 3.204,5.601 5.676,11.625 7.811,17.701 4.394,12.51 6.755,25.748 8.04,38.914 C 3.187,1.801 0.187,1.916 0,0"
           style="fill:#b64926;fill-opacity:1;fill-rule:nonzero;stroke:none"
           id="path788" />
      </g>
      <g
         transform="translate(203.3496,298.3731)"
         id="g794">
        <path
           d="m 0,0 c 3.143,-3.065 6.958,-4.311 11.302,-4.275 1.931,0.015 2.066,3.013 0.133,2.998 -3.554,-0.03 -6.654,0.8 -9.247,3.33 C 0.808,3.398 -1.39,1.355 0,0"
           style="fill:#b64926;fill-opacity:1;fill-rule:nonzero;stroke:none"
           id="path792" />
      </g>
      <g
         transform="translate(199.6348,290.0254)"
         id="g798">
        <path
           d="m 0,0 c 1.775,-3.176 6.166,-5.426 9.779,-5.162 1.91,0.139 2.057,3.137 0.132,2.998 C 7.325,-2.353 3.944,-0.906 2.642,1.422 1.699,3.107 -0.946,1.691 0,0"
           style="fill:#b64926;fill-opacity:1;fill-rule:nonzero;stroke:none"
           id="path796" />
      </g>
      <g
         transform="translate(249.8575,300.9883)"
         id="g802">
        <path
           d="m 0,0 c 5.389,-10.646 21.111,-10.019 31.015,-8.275 12.022,2.117 30.317,7.832 28.28,23.031 -0.253,1.889 -3.256,1.914 -3,0 C 57.298,7.27 53.258,3.451 47.074,0.131 41.866,-2.664 35.984,-4.244 30.217,-5.383 21.684,-7.066 7.225,-7.643 2.591,1.514 1.717,3.24 -0.871,1.721 0,0"
           style="fill:#468966;fill-opacity:1;fill-rule:nonzero;stroke:none"
           id="path800" />
      </g>
      <g
         transform="translate(247.7061,310.0957)"
         id="g806">
        <path
           d="m 0,0 c 3.228,-9.064 15.241,-10.369 23.454,-10.74 11.751,-0.532 24.894,1.304 35.499,6.593 1.732,0.864 0.212,3.452 -1.514,2.59 C 48.53,-6 38.004,-7.457 28.162,-7.766 20.747,-7.998 6.001,-7.93 2.893,0.797 2.249,2.607 -0.65,1.828 0,0"
           style="fill:#468966;fill-opacity:1;fill-rule:nonzero;stroke:none"
           id="path804" />
      </g>
    </pattern>
    <clipPath
       clipPathUnits="userSpaceOnUse"
       id="clipPath820">
      <path
         d="M 0,800 H 800 V 0 H 0 Z"
         id="path818" />
    </clipPath>
  </defs>
  <sodipodi:namedview
     id="namedview20"
     pagecolor="#505050"
     bordercolor="#ffffff"
     borderopacity="1"
     inkscape:showpageshadow="0"
     inkscape:pageopacity="0"
     inkscape:pagecheckerboard="1"
     inkscape:deskcolor="#505050"
     showgrid="false"
     inkscape:zoom="0.88499989"
     inkscape:cx="815.81931"
     inkscape:cy="584.18086"
     inkscape:window-width="1920"
     inkscape:window-height="1131"
     inkscape:window-x="0"
     inkscape:window-y="0"
     inkscape:window-maximized="1"
     inkscape:current-layer="g26">
    <inkscape:page
       x="0"
       y="0"
       id="page24"
       width="1066.6667"
       height="1066.6667" />
  </sodipodi:namedview>
  <g
     id="g26"
     inkscape:groupmode="layer"
     inkscape:label="Page 1"
     transform="matrix(1.3333333,0,0,-1.3333333,0,1066.6667)">
    <path
       d="M 0,0 H 800 V 800 H 0 Z"
       style="fill:url(#pattern808);fill-opacity:1;fill-rule:nonzero;stroke:none"
       id="path810" />
  </g>
</svg>
