<svg
   version="1.1"
   id="svg2"
   xml:space="preserve"
   width="1000"
   height="1000"
   viewBox="110 450 100 200"
   sodipodi:docname="153887-OVICAT-939.eps"
   xmlns:inkscape="http://www.inkscape.org/namespaces/inkscape"
   xmlns:sodipodi="http://sodipodi.sourceforge.net/DTD/sodipodi-0.dtd"
   xmlns="http://www.w3.org/2000/svg"
   xmlns:svg="http://www.w3.org/2000/svg"><defs
     id="defs6" /><sodipodi:namedview
     id="namedview4"
     pagecolor="#ffffff"
     bordercolor="#666666"
     borderopacity="1.0"
     inkscape:pageshadow="2"
     inkscape:pageopacity="0.0"
     inkscape:pagecheckerboard="0" /><g
     id="g8"
     inkscape:groupmode="layer"
     inkscape:label="ink_ext_XXXXXX"
     transform="matrix(1.3333333,0,0,-1.3333333,0,666.66667)"><g
       id="g10"
       transform="scale(0.1)"><path
         d="M 696.758,1101.59 H 1742.03 v -76.15 l -83.83,-11.64 65.32,-10.57 c 0,0 -158.13,-52.359 -153.37,-52.359 3.7,0 113.7,10.84 171.88,14.008 v -105.77 l -117.67,-19.558 117.67,-34.11 V 591.781 H 696.758 v 358.828 l 99.953,14.012 c 0,0 -52.356,8.988 -99.953,16.918 v 120.051"
         style="fill:#ba7c52;fill-opacity:1;fill-rule:evenodd;stroke:none"
         id="path76" /><path
         d="m 1629.12,838.23 112.91,-32.789 V 591.781 H 696.758 v 98.899 c 281.613,-0.801 819.452,1.32 885.822,26.699 25.12,9.519 39.13,57.121 46.54,120.851 z m 6.61,118.461 c 35.17,3.168 77.21,6.61 106.3,8.188 V 859.109 L 1629.38,840.34 c 3.97,35.172 5.82,75.101 6.35,116.351 z m -2.65,144.899 h 108.95 v -76.15 l -83.83,-11.64 65.32,-10.57 c 0,0 -46.01,-15.339 -87.53,-29.351 0,43.361 -1.05,87.251 -2.91,127.711 v 0"
         style="fill:#ae704d;fill-opacity:1;fill-rule:evenodd;stroke:none"
         id="path78" /><path
         d="m 897.723,1185.41 v 0 c 36.754,0 66.898,-30.14 66.898,-66.89 v -16.93 h -29.883 v 8.73 c 0,22.47 -16.656,40.98 -37.015,40.98 v 0 c -20.625,0 -37.285,-18.51 -37.285,-40.98 v -8.73 H 830.82 v 16.93 c 0,36.75 29.879,66.89 66.903,66.89 v 0"
         style="fill:#e0af45;fill-opacity:1;fill-rule:evenodd;stroke:none"
         id="path80" /><path
         d="m 1549.53,1185.41 v 0 c 37.02,0 67.16,-30.14 67.16,-66.89 v -16.93 h -29.88 v 8.73 c 0,22.47 -16.66,40.98 -37.28,40.98 v 0 c -20.36,0 -37.02,-18.51 -37.02,-40.98 v -8.73 h -29.88 v 16.93 c 0,36.75 30.14,66.89 66.9,66.89 v 0"
         style="fill:#e0af45;fill-opacity:1;fill-rule:evenodd;stroke:none"
         id="path82" /><path
         d="m 912.793,1613.25 v -472.52 c 0,-8.2 -6.875,-15.08 -15.07,-15.08 v 0 c -8.465,0 -15.34,6.88 -15.34,15.08 v 472.52 h 30.41"
         style="fill:#52220b;fill-opacity:1;fill-rule:evenodd;stroke:none"
         id="path84" /><path
         d="m 1564.86,1613.25 v -472.52 c 0,-8.2 -6.87,-15.08 -15.33,-15.08 v 0 c -8.2,0 -15.08,6.88 -15.08,15.08 v 472.52 h 30.41"
         style="fill:#52220b;fill-opacity:1;fill-rule:evenodd;stroke:none"
         id="path86" /></g></g></svg>